<mxfile host="app.diagrams.net" modified="2023-02-13T16:18:50.795Z" agent="5.0 (Windows NT 10.0; Win64; x64) AppleWebKit/537.36 (KHTML, like Gecko) Chrome/110.0.0.0 Safari/537.36 Edg/110.0.1587.41" etag="aSAzrPGgskNJ-JVRcp2B" version="20.8.20" type="github" pages="11">
  <diagram id="kxoggQMOIerRVnNvIGJB" name="Page-1">
    <mxGraphModel dx="1834" dy="1156" grid="0" gridSize="10" guides="1" tooltips="1" connect="1" arrows="1" fold="1" page="0" pageScale="1" pageWidth="850" pageHeight="1100" math="0" shadow="0">
      <root>
        <mxCell id="0" />
        <mxCell id="1" parent="0" />
        <mxCell id="m1qdBIxcBaFChLM3Lvak-29" value="" style="swimlane;startSize=0;dashed=1;fontSize=16;" parent="1" vertex="1">
          <mxGeometry x="710.1700000000001" y="230.75" width="108" height="250.5" as="geometry" />
        </mxCell>
        <mxCell id="m1qdBIxcBaFChLM3Lvak-61" value="&lt;b style=&quot;font-size: 15px;&quot;&gt;DB&lt;/b&gt;" style="shape=cylinder3;whiteSpace=wrap;html=1;boundedLbl=1;backgroundOutline=1;size=15;fontSize=15;" parent="m1qdBIxcBaFChLM3Lvak-29" vertex="1">
          <mxGeometry x="35.1" y="32.25" width="43" height="73" as="geometry" />
        </mxCell>
        <mxCell id="m1qdBIxcBaFChLM3Lvak-67" value="&lt;b style=&quot;font-size: 15px;&quot;&gt;DB&lt;/b&gt;" style="shape=cylinder3;whiteSpace=wrap;html=1;boundedLbl=1;backgroundOutline=1;size=15;fontSize=15;" parent="m1qdBIxcBaFChLM3Lvak-29" vertex="1">
          <mxGeometry x="35.1" y="130.25" width="43" height="73" as="geometry" />
        </mxCell>
        <mxCell id="m1qdBIxcBaFChLM3Lvak-30" style="edgeStyle=orthogonalEdgeStyle;rounded=0;orthogonalLoop=1;jettySize=auto;html=1;fontSize=16;" parent="1" source="m1qdBIxcBaFChLM3Lvak-22" target="m1qdBIxcBaFChLM3Lvak-29" edge="1">
          <mxGeometry relative="1" as="geometry" />
        </mxCell>
        <mxCell id="m1qdBIxcBaFChLM3Lvak-22" value="" style="swimlane;startSize=0;dashed=1;fontSize=16;" parent="1" vertex="1">
          <mxGeometry x="250.17000000000002" y="207" width="266" height="299" as="geometry" />
        </mxCell>
        <mxCell id="m1qdBIxcBaFChLM3Lvak-17" value="&lt;b&gt;golang node&lt;/b&gt;" style="points=[[0,0],[0.25,0],[0.5,0],[0.75,0],[1,0],[1,0.25],[1,0.5],[1,0.75],[1,1],[0.75,1],[0.5,1],[0.25,1],[0,1],[0,0.75],[0,0.5],[0,0.25]];outlineConnect=0;html=1;whiteSpace=wrap;fontSize=16;fontStyle=0;container=1;pointerEvents=0;collapsible=0;recursiveResize=0;shape=mxgraph.aws4.group;grIcon=mxgraph.aws4.group_ec2_instance_contents;verticalAlign=top;align=left;spacingLeft=30;dashed=0;" parent="m1qdBIxcBaFChLM3Lvak-22" vertex="1">
          <mxGeometry x="109" y="119.75" width="116" height="68.5" as="geometry" />
        </mxCell>
        <mxCell id="m1qdBIxcBaFChLM3Lvak-18" value="&lt;b&gt;golang node&lt;/b&gt;" style="points=[[0,0],[0.25,0],[0.5,0],[0.75,0],[1,0],[1,0.25],[1,0.5],[1,0.75],[1,1],[0.75,1],[0.5,1],[0.25,1],[0,1],[0,0.75],[0,0.5],[0,0.25]];outlineConnect=0;html=1;whiteSpace=wrap;fontSize=16;fontStyle=0;container=1;pointerEvents=0;collapsible=0;recursiveResize=0;shape=mxgraph.aws4.group;grIcon=mxgraph.aws4.group_ec2_instance_contents;verticalAlign=top;align=left;spacingLeft=30;dashed=0;" parent="m1qdBIxcBaFChLM3Lvak-22" vertex="1">
          <mxGeometry x="108" y="221" width="117" height="68" as="geometry" />
        </mxCell>
        <mxCell id="7NXTXkRg-UbdUnaUzsDT-4" style="edgeStyle=orthogonalEdgeStyle;rounded=0;orthogonalLoop=1;jettySize=auto;html=1;fontSize=16;" parent="1" source="7NXTXkRg-UbdUnaUzsDT-1" target="m1qdBIxcBaFChLM3Lvak-1" edge="1">
          <mxGeometry relative="1" as="geometry">
            <mxPoint x="190" y="416" as="targetPoint" />
          </mxGeometry>
        </mxCell>
        <mxCell id="7NXTXkRg-UbdUnaUzsDT-1" value="&lt;div style=&quot;font-size: 16px;&quot;&gt;Internet&lt;/div&gt;" style="outlineConnect=0;dashed=0;verticalLabelPosition=bottom;verticalAlign=top;align=center;html=1;shape=mxgraph.aws3.internet_3;fillColor=#D2D3D3;gradientColor=none;fontSize=16;" parent="1" vertex="1">
          <mxGeometry x="-216" y="330.5" width="100" height="61" as="geometry" />
        </mxCell>
        <mxCell id="m1qdBIxcBaFChLM3Lvak-19" style="edgeStyle=orthogonalEdgeStyle;rounded=0;orthogonalLoop=1;jettySize=auto;html=1;fontSize=16;" parent="1" source="m1qdBIxcBaFChLM3Lvak-1" target="m1qdBIxcBaFChLM3Lvak-17" edge="1">
          <mxGeometry relative="1" as="geometry" />
        </mxCell>
        <mxCell id="m1qdBIxcBaFChLM3Lvak-20" style="edgeStyle=orthogonalEdgeStyle;rounded=0;orthogonalLoop=1;jettySize=auto;html=1;entryX=0;entryY=0.5;entryDx=0;entryDy=0;fontSize=16;" parent="1" source="m1qdBIxcBaFChLM3Lvak-1" target="m1qdBIxcBaFChLM3Lvak-16" edge="1">
          <mxGeometry relative="1" as="geometry">
            <Array as="points">
              <mxPoint x="288" y="361" />
              <mxPoint x="288" y="267" />
            </Array>
          </mxGeometry>
        </mxCell>
        <mxCell id="ng2dteYa0ypczXY7lSAy-12" style="edgeStyle=orthogonalEdgeStyle;rounded=0;orthogonalLoop=1;jettySize=auto;html=1;entryX=0;entryY=0.5;entryDx=0;entryDy=0;strokeWidth=1;fontSize=14;fontColor=#000000;" parent="1" source="m1qdBIxcBaFChLM3Lvak-1" target="m1qdBIxcBaFChLM3Lvak-18" edge="1">
          <mxGeometry relative="1" as="geometry">
            <Array as="points">
              <mxPoint x="287" y="361" />
              <mxPoint x="287" y="462" />
            </Array>
          </mxGeometry>
        </mxCell>
        <mxCell id="m1qdBIxcBaFChLM3Lvak-1" value="&lt;div style=&quot;font-size: 16px;&quot;&gt;&lt;b&gt;Gateway&lt;/b&gt;&lt;/div&gt;" style="sketch=0;outlineConnect=0;fontColor=#232F3E;gradientColor=none;strokeColor=#232F3E;fillColor=#ffffff;dashed=0;verticalLabelPosition=bottom;verticalAlign=top;align=center;html=1;fontSize=16;fontStyle=0;aspect=fixed;shape=mxgraph.aws4.resourceIcon;resIcon=mxgraph.aws4.customer_gateway;" parent="1" vertex="1">
          <mxGeometry x="13" y="316" width="90" height="90" as="geometry" />
        </mxCell>
        <mxCell id="m1qdBIxcBaFChLM3Lvak-16" value="&lt;b&gt;golang node&lt;/b&gt;" style="points=[[0,0],[0.25,0],[0.5,0],[0.75,0],[1,0],[1,0.25],[1,0.5],[1,0.75],[1,1],[0.75,1],[0.5,1],[0.25,1],[0,1],[0,0.75],[0,0.5],[0,0.25]];outlineConnect=0;html=1;whiteSpace=wrap;fontSize=16;fontStyle=0;container=1;pointerEvents=0;collapsible=0;recursiveResize=0;shape=mxgraph.aws4.group;grIcon=mxgraph.aws4.group_ec2_instance_contents;verticalAlign=top;align=left;spacingLeft=30;dashed=0;" parent="1" vertex="1">
          <mxGeometry x="358.17" y="233" width="117" height="68" as="geometry" />
        </mxCell>
        <mxCell id="m1qdBIxcBaFChLM3Lvak-23" value="Redis" style="sketch=0;aspect=fixed;html=1;points=[];align=center;image;fontSize=16;image=img/lib/mscae/Cache_Redis_Product.svg;dashed=1;" parent="1" vertex="1">
          <mxGeometry x="613.0000000000001" y="23.5" width="69.05" height="58" as="geometry" />
        </mxCell>
        <mxCell id="V97-Ohk9ROq_f91EJZbK-7" style="edgeStyle=orthogonalEdgeStyle;rounded=0;orthogonalLoop=1;jettySize=auto;html=1;entryX=0;entryY=0.5;entryDx=0;entryDy=0;fontSize=14;" parent="1" source="m1qdBIxcBaFChLM3Lvak-33" target="V97-Ohk9ROq_f91EJZbK-5" edge="1">
          <mxGeometry relative="1" as="geometry" />
        </mxCell>
        <mxCell id="V97-Ohk9ROq_f91EJZbK-8" style="edgeStyle=orthogonalEdgeStyle;rounded=0;orthogonalLoop=1;jettySize=auto;html=1;entryX=0;entryY=0.5;entryDx=0;entryDy=0;fontSize=14;" parent="1" source="m1qdBIxcBaFChLM3Lvak-33" target="V97-Ohk9ROq_f91EJZbK-6" edge="1">
          <mxGeometry relative="1" as="geometry" />
        </mxCell>
        <mxCell id="m1qdBIxcBaFChLM3Lvak-33" value="" style="sketch=0;outlineConnect=0;fontColor=#232F3E;gradientColor=none;fillColor=#3F8624;strokeColor=none;dashed=0;verticalLabelPosition=bottom;verticalAlign=top;align=center;html=1;fontSize=16;fontStyle=0;aspect=fixed;pointerEvents=1;shape=mxgraph.aws4.http_protocol;" parent="1" vertex="1">
          <mxGeometry x="-116" y="848" width="82" height="82" as="geometry" />
        </mxCell>
        <mxCell id="2MzieibFgA2Fi-6D1n1R-5" style="edgeStyle=orthogonalEdgeStyle;rounded=0;orthogonalLoop=1;jettySize=auto;html=1;fontSize=16;startArrow=none;startFill=0;" parent="1" edge="1">
          <mxGeometry relative="1" as="geometry">
            <mxPoint x="228" y="852" as="sourcePoint" />
            <mxPoint x="387" y="907" as="targetPoint" />
            <Array as="points">
              <mxPoint x="310" y="852" />
              <mxPoint x="310" y="907" />
            </Array>
          </mxGeometry>
        </mxCell>
        <mxCell id="2MzieibFgA2Fi-6D1n1R-6" style="edgeStyle=orthogonalEdgeStyle;rounded=0;orthogonalLoop=1;jettySize=auto;html=1;entryX=0;entryY=0.5;entryDx=0;entryDy=0;fontSize=16;startArrow=none;startFill=0;" parent="1" target="m1qdBIxcBaFChLM3Lvak-55" edge="1">
          <mxGeometry relative="1" as="geometry">
            <mxPoint x="228" y="961" as="sourcePoint" />
          </mxGeometry>
        </mxCell>
        <mxCell id="2MzieibFgA2Fi-6D1n1R-9" style="edgeStyle=orthogonalEdgeStyle;rounded=0;orthogonalLoop=1;jettySize=auto;html=1;entryX=0;entryY=0.5;entryDx=0;entryDy=0;fontSize=16;startArrow=none;startFill=0;" parent="1" source="m1qdBIxcBaFChLM3Lvak-37" target="2MzieibFgA2Fi-6D1n1R-8" edge="1">
          <mxGeometry relative="1" as="geometry" />
        </mxCell>
        <mxCell id="m1qdBIxcBaFChLM3Lvak-37" value="Kafka" style="sketch=0;aspect=fixed;pointerEvents=1;shadow=0;dashed=0;html=1;strokeColor=none;labelPosition=center;verticalLabelPosition=bottom;verticalAlign=top;align=center;fillColor=#00188D;shape=mxgraph.azure.queue_generic;fontSize=16;" parent="1" vertex="1">
          <mxGeometry x="148.17" y="40.5" width="80" height="24" as="geometry" />
        </mxCell>
        <mxCell id="m1qdBIxcBaFChLM3Lvak-42" value="logs" style="edgeStyle=orthogonalEdgeStyle;rounded=0;orthogonalLoop=1;jettySize=auto;html=1;fontSize=16;startArrow=none;startFill=0;endArrow=blockThin;endFill=1;exitX=0.5;exitY=1;exitDx=0;exitDy=0;exitPerimeter=0;" parent="1" source="m1qdBIxcBaFChLM3Lvak-64" target="m1qdBIxcBaFChLM3Lvak-29" edge="1">
          <mxGeometry relative="1" as="geometry">
            <mxPoint x="456.27000000000004" y="-19.5" as="sourcePoint" />
          </mxGeometry>
        </mxCell>
        <mxCell id="m1qdBIxcBaFChLM3Lvak-44" style="edgeStyle=orthogonalEdgeStyle;rounded=0;orthogonalLoop=1;jettySize=auto;html=1;fontSize=16;startArrow=none;startFill=0;endArrow=blockThin;endFill=1;" parent="1" source="m1qdBIxcBaFChLM3Lvak-43" target="m1qdBIxcBaFChLM3Lvak-64" edge="1">
          <mxGeometry relative="1" as="geometry">
            <mxPoint x="677.2954" y="-27.144999999999982" as="targetPoint" />
          </mxGeometry>
        </mxCell>
        <mxCell id="m1qdBIxcBaFChLM3Lvak-45" value="" style="edgeStyle=orthogonalEdgeStyle;rounded=0;orthogonalLoop=1;jettySize=auto;html=1;entryX=0.5;entryY=0;entryDx=0;entryDy=0;entryPerimeter=0;fontSize=14;startArrow=none;startFill=0;endArrow=blockThin;endFill=1;exitX=0.5;exitY=1;exitDx=0;exitDy=0;" parent="1" source="m1qdBIxcBaFChLM3Lvak-43" target="m1qdBIxcBaFChLM3Lvak-37" edge="1">
          <mxGeometry relative="1" as="geometry" />
        </mxCell>
        <mxCell id="m1qdBIxcBaFChLM3Lvak-43" value="&lt;b&gt;Db Manager&lt;br&gt;&lt;/b&gt;" style="rounded=0;whiteSpace=wrap;html=1;fontSize=16;" parent="1" vertex="1">
          <mxGeometry x="128.17000000000002" y="-58" width="120" height="60" as="geometry" />
        </mxCell>
        <mxCell id="m1qdBIxcBaFChLM3Lvak-54" value="subscribe" style="edgeStyle=orthogonalEdgeStyle;rounded=0;orthogonalLoop=1;jettySize=auto;html=1;entryX=0;entryY=0.5;entryDx=0;entryDy=0;fontSize=16;startArrow=none;startFill=0;endArrow=blockThin;endFill=1;" parent="1" edge="1">
          <mxGeometry x="-0.0175" relative="1" as="geometry">
            <mxPoint x="1" as="offset" />
            <mxPoint x="213.49999999999977" y="732.95" as="sourcePoint" />
            <mxPoint x="378" y="732.95" as="targetPoint" />
          </mxGeometry>
        </mxCell>
        <mxCell id="V97-Ohk9ROq_f91EJZbK-11" style="edgeStyle=orthogonalEdgeStyle;rounded=0;orthogonalLoop=1;jettySize=auto;html=1;entryX=0;entryY=0.5;entryDx=0;entryDy=0;fontSize=16;" parent="1" source="m1qdBIxcBaFChLM3Lvak-55" target="V97-Ohk9ROq_f91EJZbK-10" edge="1">
          <mxGeometry relative="1" as="geometry" />
        </mxCell>
        <mxCell id="m1qdBIxcBaFChLM3Lvak-55" value="Local in-mem cach" style="rounded=0;whiteSpace=wrap;html=1;fontSize=16;" parent="1" vertex="1">
          <mxGeometry x="391" y="877" width="120" height="60" as="geometry" />
        </mxCell>
        <mxCell id="m1qdBIxcBaFChLM3Lvak-64" value="Database" style="shape=cylinder3;whiteSpace=wrap;html=1;boundedLbl=1;backgroundOutline=1;size=15;fontSize=16;" parent="1" vertex="1">
          <mxGeometry x="714.01" y="-63" width="100.33" height="70" as="geometry" />
        </mxCell>
        <mxCell id="XFHEB4cLUfQpfrtdGUzW-3" value="Redis" style="rounded=0;whiteSpace=wrap;html=1;fontSize=16;" parent="1" vertex="1">
          <mxGeometry x="583" y="714.95" width="120" height="60" as="geometry" />
        </mxCell>
        <mxCell id="2MzieibFgA2Fi-6D1n1R-1" value="Database" style="shape=cylinder3;whiteSpace=wrap;html=1;boundedLbl=1;backgroundOutline=1;size=15;fontSize=16;" parent="1" vertex="1">
          <mxGeometry x="780" y="870" width="88" height="75" as="geometry" />
        </mxCell>
        <mxCell id="LN3f5wx5uhQ3Bl4XZ-02-5" style="edgeStyle=orthogonalEdgeStyle;rounded=0;orthogonalLoop=1;jettySize=auto;html=1;strokeWidth=1;fontSize=14;fontColor=#000000;" parent="1" source="2MzieibFgA2Fi-6D1n1R-8" target="m1qdBIxcBaFChLM3Lvak-23" edge="1">
          <mxGeometry relative="1" as="geometry" />
        </mxCell>
        <mxCell id="ng2dteYa0ypczXY7lSAy-9" style="edgeStyle=orthogonalEdgeStyle;rounded=0;orthogonalLoop=1;jettySize=auto;html=1;entryX=0.5;entryY=0;entryDx=0;entryDy=0;entryPerimeter=0;strokeWidth=1;fontSize=14;fontColor=#000000;exitX=0;exitY=0.75;exitDx=0;exitDy=0;" parent="1" source="2MzieibFgA2Fi-6D1n1R-8" target="ng2dteYa0ypczXY7lSAy-5" edge="1">
          <mxGeometry relative="1" as="geometry" />
        </mxCell>
        <mxCell id="2MzieibFgA2Fi-6D1n1R-8" value="&lt;b&gt;Redis Manager&lt;/b&gt;" style="points=[[0,0],[0.25,0],[0.5,0],[0.75,0],[1,0],[1,0.25],[1,0.5],[1,0.75],[1,1],[0.75,1],[0.5,1],[0.25,1],[0,1],[0,0.75],[0,0.5],[0,0.25]];outlineConnect=0;html=1;whiteSpace=wrap;fontSize=16;fontStyle=0;container=1;pointerEvents=0;collapsible=0;recursiveResize=0;shape=mxgraph.aws4.group;grIcon=mxgraph.aws4.group_ec2_instance_contents;verticalAlign=top;align=left;spacingLeft=30;dashed=0;" parent="1" vertex="1">
          <mxGeometry x="425" y="18.5" width="117" height="68" as="geometry" />
        </mxCell>
        <mxCell id="2MzieibFgA2Fi-6D1n1R-13" value="subscribe db changes" style="text;html=1;strokeColor=none;fillColor=none;align=center;verticalAlign=middle;whiteSpace=wrap;rounded=0;fontSize=14;" parent="1" vertex="1">
          <mxGeometry x="250.17" y="18.5" width="80" height="30" as="geometry" />
        </mxCell>
        <mxCell id="_3_1C4JMADdlA0xlIn37-2" value="Replica" style="text;html=1;strokeColor=none;fillColor=none;align=center;verticalAlign=middle;whiteSpace=wrap;rounded=0;fontSize=14;" parent="1" vertex="1">
          <mxGeometry x="691.1700000000001" y="200.75" width="60" height="30" as="geometry" />
        </mxCell>
        <mxCell id="rhk-ju69zuOp_byAyxzU-8" value="Consume" style="edgeStyle=orthogonalEdgeStyle;rounded=0;orthogonalLoop=1;jettySize=auto;html=1;fontSize=16;" parent="1" source="rhk-ju69zuOp_byAyxzU-4" target="rhk-ju69zuOp_byAyxzU-7" edge="1">
          <mxGeometry x="-0.2" y="28" relative="1" as="geometry">
            <mxPoint as="offset" />
          </mxGeometry>
        </mxCell>
        <mxCell id="rhk-ju69zuOp_byAyxzU-4" value="&lt;b&gt;Kafka&lt;/b&gt;" style="sketch=0;aspect=fixed;pointerEvents=1;shadow=0;dashed=0;html=1;strokeColor=none;labelPosition=center;verticalLabelPosition=bottom;verticalAlign=top;align=center;fillColor=#00188D;shape=mxgraph.azure.queue_generic;fontSize=16;" parent="1" vertex="1">
          <mxGeometry x="-34" y="1211" width="146.67" height="44" as="geometry" />
        </mxCell>
        <mxCell id="rhk-ju69zuOp_byAyxzU-10" value="" style="edgeStyle=orthogonalEdgeStyle;rounded=0;orthogonalLoop=1;jettySize=auto;html=1;fontSize=16;" parent="1" source="rhk-ju69zuOp_byAyxzU-7" edge="1">
          <mxGeometry x="-0.1263" y="25" relative="1" as="geometry">
            <mxPoint as="offset" />
            <mxPoint x="401" y="1233" as="targetPoint" />
          </mxGeometry>
        </mxCell>
        <mxCell id="rhk-ju69zuOp_byAyxzU-7" value="" style="shape=image;verticalLabelPosition=bottom;labelBackgroundColor=default;verticalAlign=top;aspect=fixed;imageAspect=0;image=https://www.researchgate.net/publication/4047070/figure/fig8/AS:668899855044630@1536489561571/Ring-buffer-used-for-the-single-producer-problem.png;" parent="1" vertex="1">
          <mxGeometry x="196" y="1163.5" width="141.6" height="139" as="geometry" />
        </mxCell>
        <mxCell id="rhk-ju69zuOp_byAyxzU-12" value="Idle Time = 100ms" style="text;html=1;strokeColor=none;fillColor=none;align=center;verticalAlign=middle;whiteSpace=wrap;rounded=0;fontSize=16;" parent="1" vertex="1">
          <mxGeometry x="193.8" y="1316" width="146" height="30" as="geometry" />
        </mxCell>
        <mxCell id="V97-Ohk9ROq_f91EJZbK-3" value="&lt;font style=&quot;font-size: 16px;&quot;&gt;Message broker&lt;/font&gt;" style="sketch=0;aspect=fixed;pointerEvents=1;shadow=0;dashed=0;html=1;strokeColor=none;labelPosition=center;verticalLabelPosition=bottom;verticalAlign=top;align=center;fillColor=#00188D;shape=mxgraph.azure.queue_generic;fontSize=16;" parent="1" vertex="1">
          <mxGeometry x="77" y="713" width="133" height="39.9" as="geometry" />
        </mxCell>
        <mxCell id="V97-Ohk9ROq_f91EJZbK-9" value="&lt;div&gt;invalidate if local &lt;br&gt;&lt;/div&gt;&lt;div&gt;contain data&lt;/div&gt;" style="edgeStyle=orthogonalEdgeStyle;rounded=0;orthogonalLoop=1;jettySize=auto;html=1;fontSize=14;" parent="1" source="V97-Ohk9ROq_f91EJZbK-4" target="m1qdBIxcBaFChLM3Lvak-55" edge="1">
          <mxGeometry relative="1" as="geometry" />
        </mxCell>
        <mxCell id="V97-Ohk9ROq_f91EJZbK-4" value="Invalidate cache" style="shape=process;whiteSpace=wrap;html=1;backgroundOutline=1;fontSize=16;" parent="1" vertex="1">
          <mxGeometry x="391" y="714.95" width="120" height="60" as="geometry" />
        </mxCell>
        <mxCell id="V97-Ohk9ROq_f91EJZbK-5" value="single product processor" style="shape=process;whiteSpace=wrap;html=1;backgroundOutline=1;fontSize=16;" parent="1" vertex="1">
          <mxGeometry x="83" y="820" width="150" height="66" as="geometry" />
        </mxCell>
        <mxCell id="V97-Ohk9ROq_f91EJZbK-6" value="&#xa;multiple product processor&#xa;&#xa;" style="shape=process;whiteSpace=wrap;html=1;backgroundOutline=1;fontSize=16;" parent="1" vertex="1">
          <mxGeometry x="79" y="926" width="155" height="65" as="geometry" />
        </mxCell>
        <mxCell id="V97-Ohk9ROq_f91EJZbK-12" value="&lt;font style=&quot;font-size: 14px;&quot;&gt;get/set if cache miss&lt;br&gt;&lt;/font&gt;" style="edgeStyle=orthogonalEdgeStyle;rounded=0;orthogonalLoop=1;jettySize=auto;html=1;entryX=0.5;entryY=1;entryDx=0;entryDy=0;fontSize=16;" parent="1" source="V97-Ohk9ROq_f91EJZbK-10" target="XFHEB4cLUfQpfrtdGUzW-3" edge="1">
          <mxGeometry relative="1" as="geometry" />
        </mxCell>
        <mxCell id="V97-Ohk9ROq_f91EJZbK-13" style="edgeStyle=orthogonalEdgeStyle;rounded=0;orthogonalLoop=1;jettySize=auto;html=1;entryX=0;entryY=0.5;entryDx=0;entryDy=0;entryPerimeter=0;fontSize=16;" parent="1" source="V97-Ohk9ROq_f91EJZbK-10" target="2MzieibFgA2Fi-6D1n1R-1" edge="1">
          <mxGeometry relative="1" as="geometry" />
        </mxCell>
        <mxCell id="V97-Ohk9ROq_f91EJZbK-10" value="Cache processor" style="shape=process;whiteSpace=wrap;html=1;backgroundOutline=1;fontSize=16;" parent="1" vertex="1">
          <mxGeometry x="583" y="877" width="120" height="60" as="geometry" />
        </mxCell>
        <mxCell id="Hoq_sG7tkgHtw_mz0vR2-4" style="edgeStyle=orthogonalEdgeStyle;rounded=0;orthogonalLoop=1;jettySize=auto;html=1;entryX=0;entryY=0.5;entryDx=0;entryDy=0;strokeWidth=1;fontSize=16;fontColor=#000000;" parent="1" source="Hoq_sG7tkgHtw_mz0vR2-1" target="Hoq_sG7tkgHtw_mz0vR2-2" edge="1">
          <mxGeometry relative="1" as="geometry" />
        </mxCell>
        <mxCell id="Hoq_sG7tkgHtw_mz0vR2-1" value="Batch events" style="shape=process;whiteSpace=wrap;html=1;backgroundOutline=1;fontSize=16;fontColor=#000000;" parent="1" vertex="1">
          <mxGeometry x="404" y="1195" width="125" height="76" as="geometry" />
        </mxCell>
        <mxCell id="Hoq_sG7tkgHtw_mz0vR2-5" style="edgeStyle=orthogonalEdgeStyle;rounded=0;orthogonalLoop=1;jettySize=auto;html=1;strokeWidth=1;fontSize=16;fontColor=#000000;" parent="1" source="Hoq_sG7tkgHtw_mz0vR2-2" target="Hoq_sG7tkgHtw_mz0vR2-3" edge="1">
          <mxGeometry relative="1" as="geometry" />
        </mxCell>
        <mxCell id="Hoq_sG7tkgHtw_mz0vR2-10" value="&lt;div&gt;&lt;font style=&quot;font-size: 14px;&quot;&gt;subscribe invalidate &lt;br&gt;&lt;/font&gt;&lt;/div&gt;&lt;div&gt;&lt;font style=&quot;font-size: 14px;&quot;&gt;message&lt;/font&gt;&lt;/div&gt;" style="edgeStyle=orthogonalEdgeStyle;rounded=0;orthogonalLoop=1;jettySize=auto;html=1;strokeWidth=1;fontSize=16;fontColor=#000000;" parent="1" source="Hoq_sG7tkgHtw_mz0vR2-2" target="Hoq_sG7tkgHtw_mz0vR2-8" edge="1">
          <mxGeometry relative="1" as="geometry" />
        </mxCell>
        <mxCell id="Hoq_sG7tkgHtw_mz0vR2-2" value="Invalidate processor" style="shape=process;whiteSpace=wrap;html=1;backgroundOutline=1;fontSize=16;fontColor=#000000;" parent="1" vertex="1">
          <mxGeometry x="574" y="1195" width="129" height="76" as="geometry" />
        </mxCell>
        <mxCell id="Hoq_sG7tkgHtw_mz0vR2-3" value="Redis" style="sketch=0;aspect=fixed;html=1;points=[];align=center;image;fontSize=16;image=img/lib/mscae/Cache_Redis_Product.svg;dashed=1;" parent="1" vertex="1">
          <mxGeometry x="748" y="1203" width="71.43" height="60" as="geometry" />
        </mxCell>
        <mxCell id="Hoq_sG7tkgHtw_mz0vR2-11" style="edgeStyle=orthogonalEdgeStyle;rounded=0;orthogonalLoop=1;jettySize=auto;html=1;strokeWidth=1;fontSize=16;fontColor=#000000;" parent="1" source="Hoq_sG7tkgHtw_mz0vR2-8" target="Hoq_sG7tkgHtw_mz0vR2-9" edge="1">
          <mxGeometry relative="1" as="geometry" />
        </mxCell>
        <mxCell id="Hoq_sG7tkgHtw_mz0vR2-8" value="&lt;b&gt;golang node&lt;/b&gt;" style="points=[[0,0],[0.25,0],[0.5,0],[0.75,0],[1,0],[1,0.25],[1,0.5],[1,0.75],[1,1],[0.75,1],[0.5,1],[0.25,1],[0,1],[0,0.75],[0,0.5],[0,0.25]];outlineConnect=0;html=1;whiteSpace=wrap;fontSize=16;fontStyle=0;container=1;pointerEvents=0;collapsible=0;recursiveResize=0;shape=mxgraph.aws4.group;grIcon=mxgraph.aws4.group_ec2_instance_contents;verticalAlign=top;align=left;spacingLeft=30;dashed=0;" parent="1" vertex="1">
          <mxGeometry x="580" y="1379" width="117" height="68" as="geometry" />
        </mxCell>
        <mxCell id="Hoq_sG7tkgHtw_mz0vR2-9" value="Invalidate local cache" style="shape=process;whiteSpace=wrap;html=1;backgroundOutline=1;fontSize=16;fontColor=#000000;" parent="1" vertex="1">
          <mxGeometry x="758" y="1383" width="120" height="60" as="geometry" />
        </mxCell>
        <mxCell id="ng2dteYa0ypczXY7lSAy-1" value="CloudFront (CDN)" style="outlineConnect=0;dashed=0;verticalLabelPosition=bottom;verticalAlign=top;align=center;html=1;shape=mxgraph.aws3.cloudfront;fillColor=#F58536;gradientColor=none;" parent="1" vertex="1">
          <mxGeometry x="-86" y="43" width="59" height="74" as="geometry" />
        </mxCell>
        <mxCell id="ng2dteYa0ypczXY7lSAy-2" value="" style="endArrow=classic;html=1;rounded=0;strokeWidth=1;fontSize=14;fontColor=#000000;entryX=0.5;entryY=1;entryDx=0;entryDy=0;entryPerimeter=0;" parent="1" target="ng2dteYa0ypczXY7lSAy-1" edge="1">
          <mxGeometry width="50" height="50" relative="1" as="geometry">
            <mxPoint x="-56" y="359" as="sourcePoint" />
            <mxPoint x="-68" y="242" as="targetPoint" />
          </mxGeometry>
        </mxCell>
        <mxCell id="ng2dteYa0ypczXY7lSAy-3" value="" style="endArrow=classic;html=1;rounded=0;strokeWidth=1;fontSize=14;fontColor=#000000;exitX=0.685;exitY=-0.002;exitDx=0;exitDy=0;exitPerimeter=0;edgeStyle=orthogonalEdgeStyle;entryX=0.157;entryY=0.993;entryDx=0;entryDy=0;entryPerimeter=0;" parent="1" source="m1qdBIxcBaFChLM3Lvak-22" target="m1qdBIxcBaFChLM3Lvak-23" edge="1">
          <mxGeometry width="50" height="50" relative="1" as="geometry">
            <mxPoint x="470" y="208" as="sourcePoint" />
            <mxPoint x="657" y="105" as="targetPoint" />
          </mxGeometry>
        </mxCell>
        <mxCell id="ng2dteYa0ypczXY7lSAy-8" value="&lt;div&gt;subscribe&lt;/div&gt;&lt;div&gt;invalidate&lt;/div&gt;" style="edgeStyle=orthogonalEdgeStyle;rounded=0;orthogonalLoop=1;jettySize=auto;html=1;entryX=0.5;entryY=0;entryDx=0;entryDy=0;strokeWidth=1;fontSize=14;fontColor=#000000;exitX=1;exitY=0.51;exitDx=0;exitDy=0;exitPerimeter=0;" parent="1" source="ng2dteYa0ypczXY7lSAy-5" target="m1qdBIxcBaFChLM3Lvak-22" edge="1">
          <mxGeometry x="0.0837" relative="1" as="geometry">
            <Array as="points">
              <mxPoint x="383" y="120" />
            </Array>
            <mxPoint as="offset" />
          </mxGeometry>
        </mxCell>
        <mxCell id="ng2dteYa0ypczXY7lSAy-5" value="Kafka" style="sketch=0;aspect=fixed;pointerEvents=1;shadow=0;dashed=0;html=1;strokeColor=none;labelPosition=center;verticalLabelPosition=bottom;verticalAlign=top;align=center;fillColor=#00188D;shape=mxgraph.azure.queue_generic;fontSize=16;" parent="1" vertex="1">
          <mxGeometry x="283" y="108" width="80" height="24" as="geometry" />
        </mxCell>
        <mxCell id="ng2dteYa0ypczXY7lSAy-11" value="" style="endArrow=classic;html=1;rounded=0;strokeWidth=1;fontSize=14;fontColor=#000000;entryX=0;entryY=0.5;entryDx=0;entryDy=0;edgeStyle=orthogonalEdgeStyle;" parent="1" source="m1qdBIxcBaFChLM3Lvak-1" target="m1qdBIxcBaFChLM3Lvak-43" edge="1">
          <mxGeometry width="50" height="50" relative="1" as="geometry">
            <mxPoint x="6" y="239" as="sourcePoint" />
            <mxPoint x="56" y="189" as="targetPoint" />
            <Array as="points">
              <mxPoint x="62" y="-28" />
            </Array>
          </mxGeometry>
        </mxCell>
        <mxCell id="5v1jPoBf_j2xTYmI_kpr-1" value="" style="edgeStyle=orthogonalEdgeStyle;rounded=0;orthogonalLoop=1;jettySize=auto;html=1;" edge="1" parent="1" source="5v1jPoBf_j2xTYmI_kpr-2" target="5v1jPoBf_j2xTYmI_kpr-8">
          <mxGeometry relative="1" as="geometry" />
        </mxCell>
        <mxCell id="5v1jPoBf_j2xTYmI_kpr-2" value="&lt;b&gt;Request&lt;/b&gt;" style="ellipse;whiteSpace=wrap;html=1;aspect=fixed;fontSize=16;" vertex="1" parent="1">
          <mxGeometry x="-14.5" y="1655" width="70" height="70" as="geometry" />
        </mxCell>
        <mxCell id="5v1jPoBf_j2xTYmI_kpr-3" style="edgeStyle=orthogonalEdgeStyle;rounded=0;orthogonalLoop=1;jettySize=auto;html=1;entryX=0.5;entryY=0;entryDx=0;entryDy=0;fontSize=14;" edge="1" parent="1" source="5v1jPoBf_j2xTYmI_kpr-4" target="5v1jPoBf_j2xTYmI_kpr-19">
          <mxGeometry relative="1" as="geometry" />
        </mxCell>
        <mxCell id="5v1jPoBf_j2xTYmI_kpr-4" value="&lt;b&gt;Request&lt;/b&gt;" style="ellipse;whiteSpace=wrap;html=1;aspect=fixed;fontSize=16;" vertex="1" parent="1">
          <mxGeometry x="138" y="1655" width="70" height="70" as="geometry" />
        </mxCell>
        <mxCell id="5v1jPoBf_j2xTYmI_kpr-5" style="edgeStyle=orthogonalEdgeStyle;rounded=0;orthogonalLoop=1;jettySize=auto;html=1;entryX=0.5;entryY=0;entryDx=0;entryDy=0;fontSize=14;" edge="1" parent="1" source="5v1jPoBf_j2xTYmI_kpr-6" target="5v1jPoBf_j2xTYmI_kpr-19">
          <mxGeometry relative="1" as="geometry" />
        </mxCell>
        <mxCell id="5v1jPoBf_j2xTYmI_kpr-6" value="&lt;b&gt;Request&lt;/b&gt;" style="ellipse;whiteSpace=wrap;html=1;aspect=fixed;fontSize=16;" vertex="1" parent="1">
          <mxGeometry x="293" y="1655" width="70" height="70" as="geometry" />
        </mxCell>
        <mxCell id="5v1jPoBf_j2xTYmI_kpr-7" value="Miss" style="edgeStyle=orthogonalEdgeStyle;rounded=0;orthogonalLoop=1;jettySize=auto;html=1;fontSize=14;" edge="1" parent="1" source="5v1jPoBf_j2xTYmI_kpr-8" target="5v1jPoBf_j2xTYmI_kpr-10">
          <mxGeometry relative="1" as="geometry" />
        </mxCell>
        <mxCell id="5v1jPoBf_j2xTYmI_kpr-8" value="Get Mem" style="rounded=0;whiteSpace=wrap;html=1;fontSize=16;" vertex="1" parent="1">
          <mxGeometry x="-39.5" y="1795" width="120" height="60" as="geometry" />
        </mxCell>
        <mxCell id="5v1jPoBf_j2xTYmI_kpr-9" value="Miss" style="edgeStyle=orthogonalEdgeStyle;rounded=0;orthogonalLoop=1;jettySize=auto;html=1;fontSize=14;" edge="1" parent="1" source="5v1jPoBf_j2xTYmI_kpr-10" target="5v1jPoBf_j2xTYmI_kpr-12">
          <mxGeometry relative="1" as="geometry" />
        </mxCell>
        <mxCell id="5v1jPoBf_j2xTYmI_kpr-10" value="Get Redis" style="rounded=0;whiteSpace=wrap;html=1;fontSize=16;" vertex="1" parent="1">
          <mxGeometry x="-39.5" y="1895" width="120" height="60" as="geometry" />
        </mxCell>
        <mxCell id="5v1jPoBf_j2xTYmI_kpr-11" value="" style="edgeStyle=orthogonalEdgeStyle;rounded=0;orthogonalLoop=1;jettySize=auto;html=1;" edge="1" parent="1" source="5v1jPoBf_j2xTYmI_kpr-12" target="5v1jPoBf_j2xTYmI_kpr-15">
          <mxGeometry relative="1" as="geometry" />
        </mxCell>
        <mxCell id="5v1jPoBf_j2xTYmI_kpr-12" value="Get Database" style="rounded=0;whiteSpace=wrap;html=1;fontSize=16;" vertex="1" parent="1">
          <mxGeometry x="-39.5" y="2015" width="120" height="60" as="geometry" />
        </mxCell>
        <mxCell id="5v1jPoBf_j2xTYmI_kpr-13" value="Unlock" style="edgeStyle=orthogonalEdgeStyle;rounded=0;orthogonalLoop=1;jettySize=auto;html=1;entryX=0;entryY=0.5;entryDx=0;entryDy=0;fontSize=14;" edge="1" parent="1" source="5v1jPoBf_j2xTYmI_kpr-15" target="5v1jPoBf_j2xTYmI_kpr-17">
          <mxGeometry x="0.3535" y="20" relative="1" as="geometry">
            <Array as="points">
              <mxPoint x="108" y="2165" />
              <mxPoint x="108" y="2045" />
            </Array>
            <mxPoint x="1" as="offset" />
          </mxGeometry>
        </mxCell>
        <mxCell id="5v1jPoBf_j2xTYmI_kpr-14" value="" style="edgeStyle=orthogonalEdgeStyle;rounded=0;orthogonalLoop=1;jettySize=auto;html=1;fontSize=14;" edge="1" parent="1" source="5v1jPoBf_j2xTYmI_kpr-15" target="5v1jPoBf_j2xTYmI_kpr-20">
          <mxGeometry relative="1" as="geometry" />
        </mxCell>
        <mxCell id="5v1jPoBf_j2xTYmI_kpr-15" value="Set Redis" style="rounded=0;whiteSpace=wrap;html=1;fontSize=16;" vertex="1" parent="1">
          <mxGeometry x="-39.5" y="2135" width="120" height="60" as="geometry" />
        </mxCell>
        <mxCell id="5v1jPoBf_j2xTYmI_kpr-16" value="" style="edgeStyle=orthogonalEdgeStyle;rounded=0;orthogonalLoop=1;jettySize=auto;html=1;fontSize=14;" edge="1" parent="1" source="5v1jPoBf_j2xTYmI_kpr-17" target="5v1jPoBf_j2xTYmI_kpr-24">
          <mxGeometry relative="1" as="geometry" />
        </mxCell>
        <mxCell id="5v1jPoBf_j2xTYmI_kpr-17" value="" style="shape=image;html=1;verticalAlign=top;verticalLabelPosition=bottom;labelBackgroundColor=#ffffff;imageAspect=0;aspect=fixed;image=https://cdn3.iconfinder.com/data/icons/flat-office-icons-1/140/Artboard_1-11-128.png" vertex="1" parent="1">
          <mxGeometry x="208" y="2005" width="80" height="80" as="geometry" />
        </mxCell>
        <mxCell id="5v1jPoBf_j2xTYmI_kpr-18" value="" style="edgeStyle=orthogonalEdgeStyle;rounded=0;orthogonalLoop=1;jettySize=auto;html=1;" edge="1" parent="1" source="5v1jPoBf_j2xTYmI_kpr-19" target="5v1jPoBf_j2xTYmI_kpr-22">
          <mxGeometry relative="1" as="geometry" />
        </mxCell>
        <mxCell id="5v1jPoBf_j2xTYmI_kpr-19" value="Get Mem" style="rounded=0;whiteSpace=wrap;html=1;fontSize=16;" vertex="1" parent="1">
          <mxGeometry x="188" y="1795" width="120" height="60" as="geometry" />
        </mxCell>
        <mxCell id="5v1jPoBf_j2xTYmI_kpr-20" value="&lt;b&gt;Return&lt;/b&gt;" style="ellipse;whiteSpace=wrap;html=1;aspect=fixed;fontSize=16;" vertex="1" parent="1">
          <mxGeometry x="-19.5" y="2235" width="80" height="80" as="geometry" />
        </mxCell>
        <mxCell id="5v1jPoBf_j2xTYmI_kpr-21" value="Lock" style="edgeStyle=orthogonalEdgeStyle;rounded=0;orthogonalLoop=1;jettySize=auto;html=1;fontSize=14;" edge="1" parent="1" source="5v1jPoBf_j2xTYmI_kpr-22" target="5v1jPoBf_j2xTYmI_kpr-17">
          <mxGeometry x="0.2" y="30" relative="1" as="geometry">
            <mxPoint as="offset" />
          </mxGeometry>
        </mxCell>
        <mxCell id="5v1jPoBf_j2xTYmI_kpr-22" value="Get Redis" style="rounded=0;whiteSpace=wrap;html=1;fontSize=16;" vertex="1" parent="1">
          <mxGeometry x="188" y="1895" width="120" height="60" as="geometry" />
        </mxCell>
        <mxCell id="5v1jPoBf_j2xTYmI_kpr-23" value="" style="edgeStyle=orthogonalEdgeStyle;rounded=0;orthogonalLoop=1;jettySize=auto;html=1;fontSize=14;" edge="1" parent="1" source="5v1jPoBf_j2xTYmI_kpr-24" target="5v1jPoBf_j2xTYmI_kpr-25">
          <mxGeometry relative="1" as="geometry" />
        </mxCell>
        <mxCell id="5v1jPoBf_j2xTYmI_kpr-24" value="Get Redis" style="rounded=0;whiteSpace=wrap;html=1;fontSize=16;" vertex="1" parent="1">
          <mxGeometry x="188" y="2135" width="120" height="60" as="geometry" />
        </mxCell>
        <mxCell id="5v1jPoBf_j2xTYmI_kpr-25" value="&lt;b&gt;Return&lt;/b&gt;" style="ellipse;whiteSpace=wrap;html=1;aspect=fixed;fontSize=16;" vertex="1" parent="1">
          <mxGeometry x="208" y="2235" width="80" height="80" as="geometry" />
        </mxCell>
        <mxCell id="5v1jPoBf_j2xTYmI_kpr-26" value="" style="endArrow=classic;html=1;rounded=0;fontSize=14;" edge="1" parent="1">
          <mxGeometry width="50" height="50" relative="1" as="geometry">
            <mxPoint x="-72" y="1645" as="sourcePoint" />
            <mxPoint x="-72" y="2325" as="targetPoint" />
          </mxGeometry>
        </mxCell>
        <mxCell id="5v1jPoBf_j2xTYmI_kpr-27" value="Timeline" style="text;html=1;strokeColor=none;fillColor=none;align=center;verticalAlign=middle;whiteSpace=wrap;rounded=0;fontSize=14;" vertex="1" parent="1">
          <mxGeometry x="-142" y="1655" width="60" height="30" as="geometry" />
        </mxCell>
        <mxCell id="5v1jPoBf_j2xTYmI_kpr-28" value="" style="endArrow=none;dashed=1;html=1;dashPattern=1 3;strokeWidth=2;rounded=0;fontSize=14;startArrow=none;" edge="1" parent="1">
          <mxGeometry width="50" height="50" relative="1" as="geometry">
            <mxPoint x="-122" y="1775" as="sourcePoint" />
            <mxPoint x="368" y="1775" as="targetPoint" />
          </mxGeometry>
        </mxCell>
        <mxCell id="5v1jPoBf_j2xTYmI_kpr-29" value="" style="shape=image;html=1;verticalAlign=top;verticalLabelPosition=bottom;labelBackgroundColor=#ffffff;imageAspect=0;aspect=fixed;image=https://cdn0.iconfinder.com/data/icons/evericons-16px/16/x-128.png;fontSize=14;" vertex="1" parent="1">
          <mxGeometry x="-86" y="1760" width="28" height="28" as="geometry" />
        </mxCell>
      </root>
    </mxGraphModel>
  </diagram>
  <diagram id="Ims7ciZiKZdd2yiEgbkb" name="get single product">
    <mxGraphModel dx="2284" dy="756" grid="1" gridSize="10" guides="1" tooltips="1" connect="1" arrows="1" fold="1" page="1" pageScale="1" pageWidth="850" pageHeight="1100" math="0" shadow="0">
      <root>
        <mxCell id="0" />
        <mxCell id="1" parent="0" />
        <mxCell id="5jhEbbEkWmwQDy5OxIEi-5" value="&lt;div&gt;GET&lt;/div&gt;&lt;div&gt;(single)&lt;br&gt;&lt;/div&gt;" style="edgeStyle=orthogonalEdgeStyle;rounded=0;orthogonalLoop=1;jettySize=auto;html=1;entryX=0;entryY=0.5;entryDx=0;entryDy=0;fontSize=16;startArrow=classic;startFill=1;" parent="1" source="5jhEbbEkWmwQDy5OxIEi-2" target="5jhEbbEkWmwQDy5OxIEi-4" edge="1">
          <mxGeometry relative="1" as="geometry" />
        </mxCell>
        <mxCell id="5jhEbbEkWmwQDy5OxIEi-2" value="HTTP" style="rounded=1;whiteSpace=wrap;html=1;fontSize=16;" parent="1" vertex="1">
          <mxGeometry x="-30" y="245" width="90" height="50" as="geometry" />
        </mxCell>
        <mxCell id="5jhEbbEkWmwQDy5OxIEi-18" style="edgeStyle=orthogonalEdgeStyle;rounded=1;orthogonalLoop=1;jettySize=auto;html=1;fontSize=16;startArrow=none;startFill=0;" parent="1" source="5jhEbbEkWmwQDy5OxIEi-4" target="5jhEbbEkWmwQDy5OxIEi-11" edge="1">
          <mxGeometry relative="1" as="geometry" />
        </mxCell>
        <mxCell id="5jhEbbEkWmwQDy5OxIEi-4" value="API endpoint" style="rounded=1;whiteSpace=wrap;html=1;fontSize=16;" parent="1" vertex="1">
          <mxGeometry x="190" y="245" width="110" height="50" as="geometry" />
        </mxCell>
        <mxCell id="5jhEbbEkWmwQDy5OxIEi-23" value="miss" style="edgeStyle=orthogonalEdgeStyle;rounded=1;orthogonalLoop=1;jettySize=auto;html=1;entryX=0;entryY=0.5;entryDx=0;entryDy=0;fontSize=16;startArrow=none;startFill=0;" parent="1" source="5jhEbbEkWmwQDy5OxIEi-7" edge="1">
          <mxGeometry relative="1" as="geometry">
            <mxPoint x="590" y="370" as="targetPoint" />
          </mxGeometry>
        </mxCell>
        <mxCell id="5jhEbbEkWmwQDy5OxIEi-7" value="In-mem cache" style="rounded=1;whiteSpace=wrap;html=1;fontSize=16;" parent="1" vertex="1">
          <mxGeometry x="380" y="340" width="120" height="60" as="geometry" />
        </mxCell>
        <mxCell id="5jhEbbEkWmwQDy5OxIEi-19" style="edgeStyle=orthogonalEdgeStyle;rounded=1;orthogonalLoop=1;jettySize=auto;html=1;fontSize=16;startArrow=none;startFill=0;" parent="1" source="5jhEbbEkWmwQDy5OxIEi-11" target="5jhEbbEkWmwQDy5OxIEi-7" edge="1">
          <mxGeometry relative="1" as="geometry" />
        </mxCell>
        <mxCell id="5jhEbbEkWmwQDy5OxIEi-11" value="Get data process" style="rounded=1;whiteSpace=wrap;html=1;fontSize=16;" parent="1" vertex="1">
          <mxGeometry x="380" y="240" width="120" height="60" as="geometry" />
        </mxCell>
        <mxCell id="5jhEbbEkWmwQDy5OxIEi-21" style="edgeStyle=orthogonalEdgeStyle;rounded=1;orthogonalLoop=1;jettySize=auto;html=1;entryX=0.5;entryY=0;entryDx=0;entryDy=0;fontSize=16;startArrow=none;startFill=0;" parent="1" source="5jhEbbEkWmwQDy5OxIEi-14" target="5jhEbbEkWmwQDy5OxIEi-16" edge="1">
          <mxGeometry relative="1" as="geometry" />
        </mxCell>
        <mxCell id="5jhEbbEkWmwQDy5OxIEi-14" value="Access Redis" style="rounded=1;whiteSpace=wrap;html=1;fontSize=16;" parent="1" vertex="1">
          <mxGeometry x="590" y="440" width="120" height="60" as="geometry" />
        </mxCell>
        <mxCell id="5jhEbbEkWmwQDy5OxIEi-16" value="Access Posgres" style="rounded=1;whiteSpace=wrap;html=1;fontSize=16;" parent="1" vertex="1">
          <mxGeometry x="590" y="540" width="120" height="60" as="geometry" />
        </mxCell>
        <mxCell id="5jhEbbEkWmwQDy5OxIEi-24" style="edgeStyle=orthogonalEdgeStyle;rounded=1;orthogonalLoop=1;jettySize=auto;html=1;fontSize=16;startArrow=none;startFill=0;" parent="1" target="5jhEbbEkWmwQDy5OxIEi-14" edge="1">
          <mxGeometry relative="1" as="geometry">
            <mxPoint x="650" y="400" as="sourcePoint" />
          </mxGeometry>
        </mxCell>
        <mxCell id="5jhEbbEkWmwQDy5OxIEi-25" value="&lt;div&gt;Count_Miss&lt;/div&gt;&lt;div&gt;product&lt;br&gt;&lt;/div&gt;" style="shape=parallelogram;perimeter=parallelogramPerimeter;whiteSpace=wrap;html=1;fixedSize=1;fontSize=16;" parent="1" vertex="1">
          <mxGeometry x="590" y="340" width="120" height="60" as="geometry" />
        </mxCell>
        <mxCell id="5jhEbbEkWmwQDy5OxIEi-28" style="edgeStyle=orthogonalEdgeStyle;rounded=1;orthogonalLoop=1;jettySize=auto;html=1;fontSize=16;startArrow=none;startFill=0;" parent="1" source="5jhEbbEkWmwQDy5OxIEi-26" target="5jhEbbEkWmwQDy5OxIEi-27" edge="1">
          <mxGeometry relative="1" as="geometry" />
        </mxCell>
        <mxCell id="5jhEbbEkWmwQDy5OxIEi-26" value="&lt;b&gt;Request&lt;/b&gt;" style="ellipse;whiteSpace=wrap;html=1;aspect=fixed;fontSize=16;" parent="1" vertex="1">
          <mxGeometry x="-20" y="700" width="70" height="70" as="geometry" />
        </mxCell>
        <mxCell id="5jhEbbEkWmwQDy5OxIEi-30" style="edgeStyle=orthogonalEdgeStyle;rounded=1;orthogonalLoop=1;jettySize=auto;html=1;fontSize=16;startArrow=none;startFill=0;" parent="1" source="5jhEbbEkWmwQDy5OxIEi-27" target="5jhEbbEkWmwQDy5OxIEi-29" edge="1">
          <mxGeometry relative="1" as="geometry" />
        </mxCell>
        <mxCell id="5jhEbbEkWmwQDy5OxIEi-27" value="Handle request" style="rounded=0;whiteSpace=wrap;html=1;fontSize=16;" parent="1" vertex="1">
          <mxGeometry x="130" y="705" width="120" height="60" as="geometry" />
        </mxCell>
        <mxCell id="5jhEbbEkWmwQDy5OxIEi-33" value="hit" style="edgeStyle=orthogonalEdgeStyle;rounded=1;orthogonalLoop=1;jettySize=auto;html=1;fontSize=14;startArrow=none;startFill=0;exitX=0.5;exitY=1;exitDx=0;exitDy=0;" parent="1" source="5jhEbbEkWmwQDy5OxIEi-29" target="5jhEbbEkWmwQDy5OxIEi-31" edge="1">
          <mxGeometry x="-0.1613" relative="1" as="geometry">
            <mxPoint as="offset" />
          </mxGeometry>
        </mxCell>
        <mxCell id="5jhEbbEkWmwQDy5OxIEi-47" value="miss" style="edgeStyle=orthogonalEdgeStyle;rounded=1;orthogonalLoop=1;jettySize=auto;html=1;fontSize=14;startArrow=none;startFill=0;entryX=0;entryY=0.5;entryDx=0;entryDy=0;" parent="1" source="5jhEbbEkWmwQDy5OxIEi-29" target="QVbcrvBGEZq4uIX4MvmX-2" edge="1">
          <mxGeometry relative="1" as="geometry">
            <mxPoint x="560" y="735" as="targetPoint" />
          </mxGeometry>
        </mxCell>
        <mxCell id="5jhEbbEkWmwQDy5OxIEi-29" value="In-mem cache" style="rhombus;whiteSpace=wrap;html=1;fontSize=16;" parent="1" vertex="1">
          <mxGeometry x="320" y="705" width="115" height="60" as="geometry" />
        </mxCell>
        <mxCell id="5jhEbbEkWmwQDy5OxIEi-35" value="Code Flow" style="text;html=1;strokeColor=none;fillColor=none;align=center;verticalAlign=middle;whiteSpace=wrap;rounded=0;fontSize=16;" parent="1" vertex="1">
          <mxGeometry x="-42.5" y="660" width="115" height="30" as="geometry" />
        </mxCell>
        <mxCell id="5jhEbbEkWmwQDy5OxIEi-39" value="" style="swimlane;startSize=0;fontSize=16;" parent="1" vertex="1">
          <mxGeometry x="-60" y="200" width="820" height="420" as="geometry" />
        </mxCell>
        <mxCell id="8KCDpG5zO4vYDQfOYkxK-1" value="" style="swimlane;startSize=0;fontSize=16;" parent="1" vertex="1">
          <mxGeometry x="-50" y="640" width="1180" height="520" as="geometry" />
        </mxCell>
        <mxCell id="5jhEbbEkWmwQDy5OxIEi-31" value="Combine data" style="rounded=0;whiteSpace=wrap;html=1;fontSize=16;" parent="8KCDpG5zO4vYDQfOYkxK-1" vertex="1">
          <mxGeometry x="367.5" y="265" width="120" height="60" as="geometry" />
        </mxCell>
        <mxCell id="5jhEbbEkWmwQDy5OxIEi-32" value="&lt;b&gt;Return&lt;/b&gt;" style="ellipse;whiteSpace=wrap;html=1;aspect=fixed;fontSize=16;" parent="8KCDpG5zO4vYDQfOYkxK-1" vertex="1">
          <mxGeometry x="387.5" y="380" width="80" height="80" as="geometry" />
        </mxCell>
        <mxCell id="5jhEbbEkWmwQDy5OxIEi-34" style="edgeStyle=orthogonalEdgeStyle;rounded=1;orthogonalLoop=1;jettySize=auto;html=1;fontSize=16;startArrow=none;startFill=0;" parent="8KCDpG5zO4vYDQfOYkxK-1" source="5jhEbbEkWmwQDy5OxIEi-31" target="5jhEbbEkWmwQDy5OxIEi-32" edge="1">
          <mxGeometry relative="1" as="geometry" />
        </mxCell>
        <mxCell id="QVbcrvBGEZq4uIX4MvmX-2" value="Count miss" style="rounded=0;whiteSpace=wrap;html=1;fontSize=16;" parent="8KCDpG5zO4vYDQfOYkxK-1" vertex="1">
          <mxGeometry x="620" y="65" width="120" height="60" as="geometry" />
        </mxCell>
        <mxCell id="QVbcrvBGEZq4uIX4MvmX-5" value="Get Redis" style="rhombus;whiteSpace=wrap;html=1;fontSize=16;" parent="8KCDpG5zO4vYDQfOYkxK-1" vertex="1">
          <mxGeometry x="815" y="55" width="130" height="80" as="geometry" />
        </mxCell>
        <mxCell id="QVbcrvBGEZq4uIX4MvmX-1" style="edgeStyle=orthogonalEdgeStyle;rounded=1;orthogonalLoop=1;jettySize=auto;html=1;fontSize=16;startArrow=none;startFill=0;" parent="8KCDpG5zO4vYDQfOYkxK-1" source="QVbcrvBGEZq4uIX4MvmX-2" target="QVbcrvBGEZq4uIX4MvmX-5" edge="1">
          <mxGeometry relative="1" as="geometry" />
        </mxCell>
        <mxCell id="QVbcrvBGEZq4uIX4MvmX-7" value="Get Database" style="rounded=0;whiteSpace=wrap;html=1;fontSize=16;" parent="8KCDpG5zO4vYDQfOYkxK-1" vertex="1">
          <mxGeometry x="1030" y="65" width="120" height="60" as="geometry" />
        </mxCell>
        <mxCell id="QVbcrvBGEZq4uIX4MvmX-3" value="miss" style="edgeStyle=orthogonalEdgeStyle;rounded=1;orthogonalLoop=1;jettySize=auto;html=1;fontSize=14;startArrow=none;startFill=0;" parent="8KCDpG5zO4vYDQfOYkxK-1" source="QVbcrvBGEZq4uIX4MvmX-5" target="QVbcrvBGEZq4uIX4MvmX-7" edge="1">
          <mxGeometry relative="1" as="geometry" />
        </mxCell>
        <mxCell id="QVbcrvBGEZq4uIX4MvmX-9" value="Set Redis" style="rounded=0;whiteSpace=wrap;html=1;fontSize=16;" parent="8KCDpG5zO4vYDQfOYkxK-1" vertex="1">
          <mxGeometry x="1030" y="195" width="120" height="60" as="geometry" />
        </mxCell>
        <mxCell id="QVbcrvBGEZq4uIX4MvmX-6" style="edgeStyle=orthogonalEdgeStyle;rounded=1;orthogonalLoop=1;jettySize=auto;html=1;fontSize=16;startArrow=none;startFill=0;" parent="8KCDpG5zO4vYDQfOYkxK-1" source="QVbcrvBGEZq4uIX4MvmX-7" target="QVbcrvBGEZq4uIX4MvmX-9" edge="1">
          <mxGeometry relative="1" as="geometry" />
        </mxCell>
        <mxCell id="QVbcrvBGEZq4uIX4MvmX-15" value="no" style="edgeStyle=orthogonalEdgeStyle;rounded=0;orthogonalLoop=1;jettySize=auto;html=1;entryX=1;entryY=0.5;entryDx=0;entryDy=0;fontSize=14;startArrow=none;startFill=0;exitX=0.5;exitY=1;exitDx=0;exitDy=0;" parent="8KCDpG5zO4vYDQfOYkxK-1" source="QVbcrvBGEZq4uIX4MvmX-11" target="5jhEbbEkWmwQDy5OxIEi-31" edge="1">
          <mxGeometry x="-0.9255" y="3" relative="1" as="geometry">
            <mxPoint as="offset" />
          </mxGeometry>
        </mxCell>
        <mxCell id="QVbcrvBGEZq4uIX4MvmX-11" value="Miss &amp;gt; n" style="rhombus;whiteSpace=wrap;html=1;fontSize=16;" parent="8KCDpG5zO4vYDQfOYkxK-1" vertex="1">
          <mxGeometry x="815" y="185" width="125" height="80" as="geometry" />
        </mxCell>
        <mxCell id="QVbcrvBGEZq4uIX4MvmX-4" value="hit" style="edgeStyle=orthogonalEdgeStyle;rounded=1;orthogonalLoop=1;jettySize=auto;html=1;entryX=0.5;entryY=0;entryDx=0;entryDy=0;fontSize=14;startArrow=none;startFill=0;" parent="8KCDpG5zO4vYDQfOYkxK-1" source="QVbcrvBGEZq4uIX4MvmX-5" target="QVbcrvBGEZq4uIX4MvmX-11" edge="1">
          <mxGeometry relative="1" as="geometry" />
        </mxCell>
        <mxCell id="QVbcrvBGEZq4uIX4MvmX-8" style="edgeStyle=orthogonalEdgeStyle;rounded=1;orthogonalLoop=1;jettySize=auto;html=1;fontSize=16;startArrow=none;startFill=0;" parent="8KCDpG5zO4vYDQfOYkxK-1" source="QVbcrvBGEZq4uIX4MvmX-9" target="QVbcrvBGEZq4uIX4MvmX-11" edge="1">
          <mxGeometry relative="1" as="geometry" />
        </mxCell>
        <mxCell id="QVbcrvBGEZq4uIX4MvmX-16" style="edgeStyle=orthogonalEdgeStyle;rounded=0;orthogonalLoop=1;jettySize=auto;html=1;entryX=1;entryY=0.5;entryDx=0;entryDy=0;fontSize=14;startArrow=none;startFill=0;exitX=0.5;exitY=1;exitDx=0;exitDy=0;" parent="8KCDpG5zO4vYDQfOYkxK-1" source="QVbcrvBGEZq4uIX4MvmX-12" target="5jhEbbEkWmwQDy5OxIEi-31" edge="1">
          <mxGeometry relative="1" as="geometry" />
        </mxCell>
        <mxCell id="QVbcrvBGEZq4uIX4MvmX-12" value="Set in-mem cache" style="rounded=0;whiteSpace=wrap;html=1;fontSize=16;" parent="8KCDpG5zO4vYDQfOYkxK-1" vertex="1">
          <mxGeometry x="630" y="195" width="120" height="60" as="geometry" />
        </mxCell>
        <mxCell id="QVbcrvBGEZq4uIX4MvmX-10" value="yes" style="edgeStyle=orthogonalEdgeStyle;rounded=1;orthogonalLoop=1;jettySize=auto;html=1;fontSize=14;startArrow=none;startFill=0;" parent="8KCDpG5zO4vYDQfOYkxK-1" source="QVbcrvBGEZq4uIX4MvmX-11" target="QVbcrvBGEZq4uIX4MvmX-12" edge="1">
          <mxGeometry x="-0.2308" relative="1" as="geometry">
            <mxPoint as="offset" />
          </mxGeometry>
        </mxCell>
        <mxCell id="fmFr0_AA8C5tsm2eSD44-13" value="" style="edgeStyle=orthogonalEdgeStyle;rounded=0;orthogonalLoop=1;jettySize=auto;html=1;" edge="1" parent="1" source="fmFr0_AA8C5tsm2eSD44-1" target="fmFr0_AA8C5tsm2eSD44-4">
          <mxGeometry relative="1" as="geometry" />
        </mxCell>
        <mxCell id="fmFr0_AA8C5tsm2eSD44-1" value="&lt;b&gt;Request&lt;/b&gt;" style="ellipse;whiteSpace=wrap;html=1;aspect=fixed;fontSize=16;" vertex="1" parent="1">
          <mxGeometry x="97.5" y="1250" width="70" height="70" as="geometry" />
        </mxCell>
        <mxCell id="fmFr0_AA8C5tsm2eSD44-25" style="edgeStyle=orthogonalEdgeStyle;rounded=0;orthogonalLoop=1;jettySize=auto;html=1;entryX=0.5;entryY=0;entryDx=0;entryDy=0;fontSize=14;" edge="1" parent="1" source="fmFr0_AA8C5tsm2eSD44-2" target="fmFr0_AA8C5tsm2eSD44-14">
          <mxGeometry relative="1" as="geometry" />
        </mxCell>
        <mxCell id="fmFr0_AA8C5tsm2eSD44-2" value="&lt;b&gt;Request&lt;/b&gt;" style="ellipse;whiteSpace=wrap;html=1;aspect=fixed;fontSize=16;" vertex="1" parent="1">
          <mxGeometry x="250" y="1250" width="70" height="70" as="geometry" />
        </mxCell>
        <mxCell id="fmFr0_AA8C5tsm2eSD44-27" style="edgeStyle=orthogonalEdgeStyle;rounded=0;orthogonalLoop=1;jettySize=auto;html=1;entryX=0.5;entryY=0;entryDx=0;entryDy=0;fontSize=14;" edge="1" parent="1" source="fmFr0_AA8C5tsm2eSD44-3" target="fmFr0_AA8C5tsm2eSD44-14">
          <mxGeometry relative="1" as="geometry" />
        </mxCell>
        <mxCell id="fmFr0_AA8C5tsm2eSD44-3" value="&lt;b&gt;Request&lt;/b&gt;" style="ellipse;whiteSpace=wrap;html=1;aspect=fixed;fontSize=16;" vertex="1" parent="1">
          <mxGeometry x="405" y="1250" width="70" height="70" as="geometry" />
        </mxCell>
        <mxCell id="fmFr0_AA8C5tsm2eSD44-8" value="Miss" style="edgeStyle=orthogonalEdgeStyle;rounded=0;orthogonalLoop=1;jettySize=auto;html=1;fontSize=14;" edge="1" parent="1" source="fmFr0_AA8C5tsm2eSD44-4" target="fmFr0_AA8C5tsm2eSD44-5">
          <mxGeometry relative="1" as="geometry" />
        </mxCell>
        <mxCell id="fmFr0_AA8C5tsm2eSD44-4" value="Get Mem" style="rounded=0;whiteSpace=wrap;html=1;fontSize=16;" vertex="1" parent="1">
          <mxGeometry x="72.5" y="1390" width="120" height="60" as="geometry" />
        </mxCell>
        <mxCell id="fmFr0_AA8C5tsm2eSD44-9" value="Miss" style="edgeStyle=orthogonalEdgeStyle;rounded=0;orthogonalLoop=1;jettySize=auto;html=1;fontSize=14;" edge="1" parent="1" source="fmFr0_AA8C5tsm2eSD44-5" target="fmFr0_AA8C5tsm2eSD44-6">
          <mxGeometry relative="1" as="geometry" />
        </mxCell>
        <mxCell id="fmFr0_AA8C5tsm2eSD44-5" value="Get Redis" style="rounded=0;whiteSpace=wrap;html=1;fontSize=16;" vertex="1" parent="1">
          <mxGeometry x="72.5" y="1490" width="120" height="60" as="geometry" />
        </mxCell>
        <mxCell id="fmFr0_AA8C5tsm2eSD44-10" value="" style="edgeStyle=orthogonalEdgeStyle;rounded=0;orthogonalLoop=1;jettySize=auto;html=1;" edge="1" parent="1" source="fmFr0_AA8C5tsm2eSD44-6" target="fmFr0_AA8C5tsm2eSD44-7">
          <mxGeometry relative="1" as="geometry" />
        </mxCell>
        <mxCell id="fmFr0_AA8C5tsm2eSD44-6" value="Get Database" style="rounded=0;whiteSpace=wrap;html=1;fontSize=16;" vertex="1" parent="1">
          <mxGeometry x="72.5" y="1610" width="120" height="60" as="geometry" />
        </mxCell>
        <mxCell id="fmFr0_AA8C5tsm2eSD44-19" value="Unlock" style="edgeStyle=orthogonalEdgeStyle;rounded=0;orthogonalLoop=1;jettySize=auto;html=1;entryX=0;entryY=0.5;entryDx=0;entryDy=0;fontSize=14;" edge="1" parent="1" source="fmFr0_AA8C5tsm2eSD44-7" target="fmFr0_AA8C5tsm2eSD44-12">
          <mxGeometry x="0.3535" y="20" relative="1" as="geometry">
            <Array as="points">
              <mxPoint x="220" y="1760" />
              <mxPoint x="220" y="1640" />
            </Array>
            <mxPoint x="1" as="offset" />
          </mxGeometry>
        </mxCell>
        <mxCell id="fmFr0_AA8C5tsm2eSD44-20" value="" style="edgeStyle=orthogonalEdgeStyle;rounded=0;orthogonalLoop=1;jettySize=auto;html=1;fontSize=14;" edge="1" parent="1" source="fmFr0_AA8C5tsm2eSD44-7" target="fmFr0_AA8C5tsm2eSD44-15">
          <mxGeometry relative="1" as="geometry" />
        </mxCell>
        <mxCell id="fmFr0_AA8C5tsm2eSD44-7" value="Set Redis" style="rounded=0;whiteSpace=wrap;html=1;fontSize=16;" vertex="1" parent="1">
          <mxGeometry x="72.5" y="1730" width="120" height="60" as="geometry" />
        </mxCell>
        <mxCell id="fmFr0_AA8C5tsm2eSD44-22" value="" style="edgeStyle=orthogonalEdgeStyle;rounded=0;orthogonalLoop=1;jettySize=auto;html=1;fontSize=14;" edge="1" parent="1" source="fmFr0_AA8C5tsm2eSD44-12" target="fmFr0_AA8C5tsm2eSD44-21">
          <mxGeometry relative="1" as="geometry" />
        </mxCell>
        <mxCell id="fmFr0_AA8C5tsm2eSD44-12" value="" style="shape=image;html=1;verticalAlign=top;verticalLabelPosition=bottom;labelBackgroundColor=#ffffff;imageAspect=0;aspect=fixed;image=https://cdn3.iconfinder.com/data/icons/flat-office-icons-1/140/Artboard_1-11-128.png" vertex="1" parent="1">
          <mxGeometry x="320" y="1600" width="80" height="80" as="geometry" />
        </mxCell>
        <mxCell id="fmFr0_AA8C5tsm2eSD44-17" value="" style="edgeStyle=orthogonalEdgeStyle;rounded=0;orthogonalLoop=1;jettySize=auto;html=1;" edge="1" parent="1" source="fmFr0_AA8C5tsm2eSD44-14" target="fmFr0_AA8C5tsm2eSD44-16">
          <mxGeometry relative="1" as="geometry" />
        </mxCell>
        <mxCell id="fmFr0_AA8C5tsm2eSD44-14" value="Get Mem" style="rounded=0;whiteSpace=wrap;html=1;fontSize=16;" vertex="1" parent="1">
          <mxGeometry x="300" y="1390" width="120" height="60" as="geometry" />
        </mxCell>
        <mxCell id="fmFr0_AA8C5tsm2eSD44-15" value="&lt;b&gt;Return&lt;/b&gt;" style="ellipse;whiteSpace=wrap;html=1;aspect=fixed;fontSize=16;" vertex="1" parent="1">
          <mxGeometry x="92.5" y="1830" width="80" height="80" as="geometry" />
        </mxCell>
        <mxCell id="fmFr0_AA8C5tsm2eSD44-18" value="Lock" style="edgeStyle=orthogonalEdgeStyle;rounded=0;orthogonalLoop=1;jettySize=auto;html=1;fontSize=14;" edge="1" parent="1" source="fmFr0_AA8C5tsm2eSD44-16" target="fmFr0_AA8C5tsm2eSD44-12">
          <mxGeometry x="0.2" y="30" relative="1" as="geometry">
            <mxPoint as="offset" />
          </mxGeometry>
        </mxCell>
        <mxCell id="fmFr0_AA8C5tsm2eSD44-16" value="Get Redis" style="rounded=0;whiteSpace=wrap;html=1;fontSize=16;" vertex="1" parent="1">
          <mxGeometry x="300" y="1490" width="120" height="60" as="geometry" />
        </mxCell>
        <mxCell id="fmFr0_AA8C5tsm2eSD44-24" value="" style="edgeStyle=orthogonalEdgeStyle;rounded=0;orthogonalLoop=1;jettySize=auto;html=1;fontSize=14;" edge="1" parent="1" source="fmFr0_AA8C5tsm2eSD44-21" target="fmFr0_AA8C5tsm2eSD44-23">
          <mxGeometry relative="1" as="geometry" />
        </mxCell>
        <mxCell id="fmFr0_AA8C5tsm2eSD44-21" value="Get Redis" style="rounded=0;whiteSpace=wrap;html=1;fontSize=16;" vertex="1" parent="1">
          <mxGeometry x="300" y="1730" width="120" height="60" as="geometry" />
        </mxCell>
        <mxCell id="fmFr0_AA8C5tsm2eSD44-23" value="&lt;b&gt;Return&lt;/b&gt;" style="ellipse;whiteSpace=wrap;html=1;aspect=fixed;fontSize=16;" vertex="1" parent="1">
          <mxGeometry x="320" y="1830" width="80" height="80" as="geometry" />
        </mxCell>
        <mxCell id="fmFr0_AA8C5tsm2eSD44-28" value="" style="endArrow=classic;html=1;rounded=0;fontSize=14;" edge="1" parent="1">
          <mxGeometry width="50" height="50" relative="1" as="geometry">
            <mxPoint x="40" y="1240" as="sourcePoint" />
            <mxPoint x="40" y="1920" as="targetPoint" />
          </mxGeometry>
        </mxCell>
        <mxCell id="fmFr0_AA8C5tsm2eSD44-29" value="Timeline" style="text;html=1;strokeColor=none;fillColor=none;align=center;verticalAlign=middle;whiteSpace=wrap;rounded=0;fontSize=14;" vertex="1" parent="1">
          <mxGeometry x="-30" y="1250" width="60" height="30" as="geometry" />
        </mxCell>
        <mxCell id="fmFr0_AA8C5tsm2eSD44-30" value="" style="endArrow=none;dashed=1;html=1;dashPattern=1 3;strokeWidth=2;rounded=0;fontSize=14;startArrow=none;" edge="1" parent="1">
          <mxGeometry width="50" height="50" relative="1" as="geometry">
            <mxPoint x="-10" y="1370" as="sourcePoint" />
            <mxPoint x="480" y="1370" as="targetPoint" />
          </mxGeometry>
        </mxCell>
        <mxCell id="fmFr0_AA8C5tsm2eSD44-33" value="" style="shape=image;html=1;verticalAlign=top;verticalLabelPosition=bottom;labelBackgroundColor=#ffffff;imageAspect=0;aspect=fixed;image=https://cdn0.iconfinder.com/data/icons/evericons-16px/16/x-128.png;fontSize=14;" vertex="1" parent="1">
          <mxGeometry x="26" y="1355" width="28" height="28" as="geometry" />
        </mxCell>
      </root>
    </mxGraphModel>
  </diagram>
  <diagram id="1v4hcthY3AkDq4vldPKo" name="multiple product">
    <mxGraphModel dx="1547" dy="800" grid="1" gridSize="10" guides="1" tooltips="1" connect="1" arrows="1" fold="1" page="1" pageScale="1" pageWidth="850" pageHeight="1100" math="0" shadow="0">
      <root>
        <mxCell id="0" />
        <mxCell id="1" parent="0" />
        <mxCell id="eSVV9goGiwEJdo5BiOZ2-1" value="&lt;div&gt;GET&lt;/div&gt;&lt;div&gt;(multiple)&lt;br&gt;&lt;/div&gt;" style="edgeStyle=orthogonalEdgeStyle;rounded=0;orthogonalLoop=1;jettySize=auto;html=1;entryX=0;entryY=0.5;entryDx=0;entryDy=0;fontSize=16;startArrow=classic;startFill=1;" parent="1" source="eSVV9goGiwEJdo5BiOZ2-2" target="eSVV9goGiwEJdo5BiOZ2-3" edge="1">
          <mxGeometry relative="1" as="geometry" />
        </mxCell>
        <mxCell id="eSVV9goGiwEJdo5BiOZ2-2" value="HTTP" style="rounded=1;whiteSpace=wrap;html=1;fontSize=16;" parent="1" vertex="1">
          <mxGeometry x="40" y="220" width="90" height="50" as="geometry" />
        </mxCell>
        <mxCell id="VI1101As5ZWCcVY6s1uB-2" style="edgeStyle=orthogonalEdgeStyle;rounded=1;orthogonalLoop=1;jettySize=auto;html=1;fontSize=16;startArrow=none;startFill=0;" parent="1" source="eSVV9goGiwEJdo5BiOZ2-3" target="VI1101As5ZWCcVY6s1uB-1" edge="1">
          <mxGeometry relative="1" as="geometry" />
        </mxCell>
        <mxCell id="eSVV9goGiwEJdo5BiOZ2-3" value="API endpoint" style="rounded=1;whiteSpace=wrap;html=1;fontSize=16;" parent="1" vertex="1">
          <mxGeometry x="260" y="220" width="110" height="50" as="geometry" />
        </mxCell>
        <mxCell id="VI1101As5ZWCcVY6s1uB-4" style="edgeStyle=orthogonalEdgeStyle;rounded=1;orthogonalLoop=1;jettySize=auto;html=1;fontSize=16;startArrow=none;startFill=0;" parent="1" source="VI1101As5ZWCcVY6s1uB-1" target="VI1101As5ZWCcVY6s1uB-3" edge="1">
          <mxGeometry relative="1" as="geometry" />
        </mxCell>
        <mxCell id="VI1101As5ZWCcVY6s1uB-1" value="search ids" style="rounded=1;whiteSpace=wrap;html=1;fontSize=16;" parent="1" vertex="1">
          <mxGeometry x="430" y="215" width="120" height="60" as="geometry" />
        </mxCell>
        <mxCell id="VI1101As5ZWCcVY6s1uB-3" value="Get Single Product Process" style="rounded=1;whiteSpace=wrap;html=1;fontSize=16;" parent="1" vertex="1">
          <mxGeometry x="640" y="215" width="120" height="60" as="geometry" />
        </mxCell>
        <mxCell id="An4ITZUXQyyXLJ4btBP0-1" value="" style="swimlane;startSize=0;fontSize=16;" parent="1" vertex="1">
          <mxGeometry x="20" y="145" width="790" height="195" as="geometry" />
        </mxCell>
        <mxCell id="An4ITZUXQyyXLJ4btBP0-2" value="Code Flow" style="text;html=1;strokeColor=none;fillColor=none;align=center;verticalAlign=middle;whiteSpace=wrap;rounded=0;fontSize=16;" parent="1" vertex="1">
          <mxGeometry x="70" y="420" width="100" height="30" as="geometry" />
        </mxCell>
        <mxCell id="mn_zCfLT3hgvC70g00O2-4" style="edgeStyle=orthogonalEdgeStyle;rounded=1;orthogonalLoop=1;jettySize=auto;html=1;fontSize=16;startArrow=none;startFill=0;" parent="1" source="mn_zCfLT3hgvC70g00O2-1" target="mn_zCfLT3hgvC70g00O2-3" edge="1">
          <mxGeometry relative="1" as="geometry" />
        </mxCell>
        <mxCell id="mn_zCfLT3hgvC70g00O2-1" value="&lt;b&gt;Request&lt;/b&gt;" style="ellipse;whiteSpace=wrap;html=1;aspect=fixed;fontSize=16;" parent="1" vertex="1">
          <mxGeometry x="70" y="470" width="80" height="80" as="geometry" />
        </mxCell>
        <mxCell id="mn_zCfLT3hgvC70g00O2-6" style="edgeStyle=orthogonalEdgeStyle;rounded=1;orthogonalLoop=1;jettySize=auto;html=1;fontSize=16;startArrow=none;startFill=0;" parent="1" source="mn_zCfLT3hgvC70g00O2-3" target="mn_zCfLT3hgvC70g00O2-5" edge="1">
          <mxGeometry relative="1" as="geometry" />
        </mxCell>
        <mxCell id="mn_zCfLT3hgvC70g00O2-3" value="Handle request" style="rounded=0;whiteSpace=wrap;html=1;fontSize=16;" parent="1" vertex="1">
          <mxGeometry x="220" y="480" width="120" height="60" as="geometry" />
        </mxCell>
        <mxCell id="mn_zCfLT3hgvC70g00O2-8" style="edgeStyle=orthogonalEdgeStyle;rounded=1;orthogonalLoop=1;jettySize=auto;html=1;fontSize=16;startArrow=none;startFill=0;" parent="1" source="mn_zCfLT3hgvC70g00O2-5" target="mn_zCfLT3hgvC70g00O2-7" edge="1">
          <mxGeometry relative="1" as="geometry" />
        </mxCell>
        <mxCell id="mn_zCfLT3hgvC70g00O2-5" value="&lt;b&gt;Search Ids&lt;/b&gt;" style="rounded=0;whiteSpace=wrap;html=1;fontSize=16;" parent="1" vertex="1">
          <mxGeometry x="420" y="480" width="120" height="60" as="geometry" />
        </mxCell>
        <mxCell id="mn_zCfLT3hgvC70g00O2-11" style="edgeStyle=orthogonalEdgeStyle;rounded=1;orthogonalLoop=1;jettySize=auto;html=1;fontSize=16;startArrow=none;startFill=0;" parent="1" source="mn_zCfLT3hgvC70g00O2-7" target="mn_zCfLT3hgvC70g00O2-9" edge="1">
          <mxGeometry relative="1" as="geometry" />
        </mxCell>
        <mxCell id="mn_zCfLT3hgvC70g00O2-7" value="&lt;b&gt;Get Single Product&lt;/b&gt;" style="rounded=0;whiteSpace=wrap;html=1;fontSize=16;" parent="1" vertex="1">
          <mxGeometry x="640" y="480" width="120" height="60" as="geometry" />
        </mxCell>
        <mxCell id="mn_zCfLT3hgvC70g00O2-12" style="edgeStyle=orthogonalEdgeStyle;rounded=1;orthogonalLoop=1;jettySize=auto;html=1;fontSize=16;startArrow=none;startFill=0;" parent="1" source="mn_zCfLT3hgvC70g00O2-9" target="mn_zCfLT3hgvC70g00O2-10" edge="1">
          <mxGeometry relative="1" as="geometry" />
        </mxCell>
        <mxCell id="mn_zCfLT3hgvC70g00O2-9" value="Combine data" style="rounded=0;whiteSpace=wrap;html=1;fontSize=16;" parent="1" vertex="1">
          <mxGeometry x="640" y="610" width="120" height="60" as="geometry" />
        </mxCell>
        <mxCell id="mn_zCfLT3hgvC70g00O2-10" value="&lt;b&gt;Return&lt;/b&gt;" style="ellipse;whiteSpace=wrap;html=1;aspect=fixed;fontSize=16;" parent="1" vertex="1">
          <mxGeometry x="665" y="720" width="70" height="70" as="geometry" />
        </mxCell>
        <mxCell id="h1WzdIaK0um5Uta8plsL-14" value="" style="swimlane;startSize=0;fontSize=16;" parent="1" vertex="1">
          <mxGeometry x="30" y="420" width="790" height="400" as="geometry" />
        </mxCell>
        <mxCell id="h1WzdIaK0um5Uta8plsL-15" value="Code Flow" style="text;html=1;strokeColor=none;fillColor=none;align=center;verticalAlign=middle;whiteSpace=wrap;rounded=0;fontSize=16;" parent="1" vertex="1">
          <mxGeometry x="70" y="910" width="100" height="30" as="geometry" />
        </mxCell>
        <mxCell id="h1WzdIaK0um5Uta8plsL-48" value="" style="edgeStyle=orthogonalEdgeStyle;rounded=0;orthogonalLoop=1;jettySize=auto;html=1;fontSize=16;" parent="1" source="h1WzdIaK0um5Uta8plsL-17" target="h1WzdIaK0um5Uta8plsL-30" edge="1">
          <mxGeometry relative="1" as="geometry" />
        </mxCell>
        <mxCell id="h1WzdIaK0um5Uta8plsL-17" value="&lt;b&gt;Request&lt;/b&gt;" style="ellipse;whiteSpace=wrap;html=1;aspect=fixed;fontSize=16;" parent="1" vertex="1">
          <mxGeometry x="70" y="960" width="80" height="80" as="geometry" />
        </mxCell>
        <mxCell id="h1WzdIaK0um5Uta8plsL-47" value="" style="swimlane;startSize=0;fontSize=16;" parent="1" vertex="1">
          <mxGeometry x="50" y="880" width="940" height="430" as="geometry" />
        </mxCell>
        <mxCell id="h1WzdIaK0um5Uta8plsL-30" value="&lt;span style=&quot;font-size: 16px;&quot;&gt;Page &amp;lt; Page_cache_max_number&lt;/span&gt;" style="rhombus;whiteSpace=wrap;html=1;" parent="h1WzdIaK0um5Uta8plsL-47" vertex="1">
          <mxGeometry x="160" y="70" width="280" height="100" as="geometry" />
        </mxCell>
        <mxCell id="h1WzdIaK0um5Uta8plsL-35" value="Get Database" style="rounded=0;whiteSpace=wrap;html=1;fontSize=16;" parent="h1WzdIaK0um5Uta8plsL-47" vertex="1">
          <mxGeometry x="220" y="210" width="160" height="60" as="geometry" />
        </mxCell>
        <mxCell id="h1WzdIaK0um5Uta8plsL-39" value="No" style="edgeStyle=orthogonalEdgeStyle;rounded=0;orthogonalLoop=1;jettySize=auto;html=1;fontSize=16;" parent="h1WzdIaK0um5Uta8plsL-47" source="h1WzdIaK0um5Uta8plsL-30" target="h1WzdIaK0um5Uta8plsL-35" edge="1">
          <mxGeometry relative="1" as="geometry" />
        </mxCell>
        <mxCell id="h1WzdIaK0um5Uta8plsL-32" value="Is expired?" style="rhombus;whiteSpace=wrap;html=1;fontSize=16;" parent="h1WzdIaK0um5Uta8plsL-47" vertex="1">
          <mxGeometry x="480" y="200" width="200" height="80" as="geometry" />
        </mxCell>
        <mxCell id="h1WzdIaK0um5Uta8plsL-40" value="" style="edgeStyle=orthogonalEdgeStyle;rounded=0;orthogonalLoop=1;jettySize=auto;html=1;fontSize=16;" parent="h1WzdIaK0um5Uta8plsL-47" source="h1WzdIaK0um5Uta8plsL-35" target="h1WzdIaK0um5Uta8plsL-32" edge="1">
          <mxGeometry relative="1" as="geometry" />
        </mxCell>
        <mxCell id="h1WzdIaK0um5Uta8plsL-29" value="&lt;font style=&quot;font-size: 16px;&quot;&gt;Get Redis Cache Page&lt;/font&gt;" style="rounded=0;whiteSpace=wrap;html=1;" parent="h1WzdIaK0um5Uta8plsL-47" vertex="1">
          <mxGeometry x="490" y="90" width="180" height="60" as="geometry" />
        </mxCell>
        <mxCell id="h1WzdIaK0um5Uta8plsL-38" value="Yes" style="edgeStyle=orthogonalEdgeStyle;rounded=0;orthogonalLoop=1;jettySize=auto;html=1;fontSize=16;" parent="h1WzdIaK0um5Uta8plsL-47" source="h1WzdIaK0um5Uta8plsL-30" target="h1WzdIaK0um5Uta8plsL-29" edge="1">
          <mxGeometry relative="1" as="geometry" />
        </mxCell>
        <mxCell id="h1WzdIaK0um5Uta8plsL-41" value="" style="edgeStyle=orthogonalEdgeStyle;rounded=0;orthogonalLoop=1;jettySize=auto;html=1;fontSize=16;" parent="h1WzdIaK0um5Uta8plsL-47" source="h1WzdIaK0um5Uta8plsL-29" target="h1WzdIaK0um5Uta8plsL-32" edge="1">
          <mxGeometry relative="1" as="geometry" />
        </mxCell>
        <mxCell id="h1WzdIaK0um5Uta8plsL-34" value="&lt;b&gt;Return&lt;/b&gt;" style="ellipse;whiteSpace=wrap;html=1;aspect=fixed;fontSize=16;" parent="h1WzdIaK0um5Uta8plsL-47" vertex="1">
          <mxGeometry x="540" y="310" width="80" height="80" as="geometry" />
        </mxCell>
        <mxCell id="h1WzdIaK0um5Uta8plsL-43" value="No" style="edgeStyle=orthogonalEdgeStyle;rounded=0;orthogonalLoop=1;jettySize=auto;html=1;fontSize=16;" parent="h1WzdIaK0um5Uta8plsL-47" source="h1WzdIaK0um5Uta8plsL-32" target="h1WzdIaK0um5Uta8plsL-34" edge="1">
          <mxGeometry relative="1" as="geometry" />
        </mxCell>
        <mxCell id="h1WzdIaK0um5Uta8plsL-37" value="Get Database" style="rounded=0;whiteSpace=wrap;html=1;fontSize=16;" parent="h1WzdIaK0um5Uta8plsL-47" vertex="1">
          <mxGeometry x="740" y="210" width="180" height="60" as="geometry" />
        </mxCell>
        <mxCell id="h1WzdIaK0um5Uta8plsL-42" value="Yes" style="edgeStyle=orthogonalEdgeStyle;rounded=0;orthogonalLoop=1;jettySize=auto;html=1;fontSize=16;" parent="h1WzdIaK0um5Uta8plsL-47" source="h1WzdIaK0um5Uta8plsL-32" target="h1WzdIaK0um5Uta8plsL-37" edge="1">
          <mxGeometry relative="1" as="geometry" />
        </mxCell>
        <mxCell id="h1WzdIaK0um5Uta8plsL-36" value="Set Redis Cache Page" style="rounded=0;whiteSpace=wrap;html=1;fontSize=16;" parent="h1WzdIaK0um5Uta8plsL-47" vertex="1">
          <mxGeometry x="740" y="320" width="180" height="60" as="geometry" />
        </mxCell>
        <mxCell id="h1WzdIaK0um5Uta8plsL-44" value="" style="edgeStyle=orthogonalEdgeStyle;rounded=0;orthogonalLoop=1;jettySize=auto;html=1;fontSize=16;" parent="h1WzdIaK0um5Uta8plsL-47" source="h1WzdIaK0um5Uta8plsL-37" target="h1WzdIaK0um5Uta8plsL-36" edge="1">
          <mxGeometry relative="1" as="geometry" />
        </mxCell>
        <mxCell id="h1WzdIaK0um5Uta8plsL-45" value="" style="edgeStyle=orthogonalEdgeStyle;rounded=0;orthogonalLoop=1;jettySize=auto;html=1;fontSize=16;" parent="h1WzdIaK0um5Uta8plsL-47" source="h1WzdIaK0um5Uta8plsL-36" target="h1WzdIaK0um5Uta8plsL-34" edge="1">
          <mxGeometry relative="1" as="geometry" />
        </mxCell>
      </root>
    </mxGraphModel>
  </diagram>
  <diagram id="CP5g0GeVYMxNYXEqgG6H" name="Kafka pub/sub">
    <mxGraphModel dx="1223" dy="654" grid="0" gridSize="10" guides="1" tooltips="1" connect="1" arrows="1" fold="1" page="0" pageScale="1" pageWidth="850" pageHeight="1100" math="0" shadow="0">
      <root>
        <mxCell id="0" />
        <mxCell id="1" parent="0" />
        <mxCell id="15ZIn56Vv13TprKXZhgK-5" value="" style="rounded=0;whiteSpace=wrap;html=1;fontSize=16;dashed=1;dashPattern=1 2;fillColor=#f5f5f5;fontColor=#333333;strokeColor=#666666;" vertex="1" parent="1">
          <mxGeometry x="1116" y="204" width="96" height="194" as="geometry" />
        </mxCell>
        <mxCell id="15ZIn56Vv13TprKXZhgK-6" value="" style="rounded=0;whiteSpace=wrap;html=1;fontSize=16;dashed=1;dashPattern=1 2;fillColor=#f5f5f5;fontColor=#333333;strokeColor=#666666;" vertex="1" parent="1">
          <mxGeometry x="1231" y="202" width="96" height="194" as="geometry" />
        </mxCell>
        <mxCell id="15ZIn56Vv13TprKXZhgK-14" value="" style="rounded=0;whiteSpace=wrap;html=1;fontSize=16;dashed=1;dashPattern=1 2;fillColor=#f5f5f5;fontColor=#333333;strokeColor=#666666;" vertex="1" parent="1">
          <mxGeometry x="1574" y="202" width="96" height="194" as="geometry" />
        </mxCell>
        <mxCell id="15ZIn56Vv13TprKXZhgK-15" value="" style="rounded=0;whiteSpace=wrap;html=1;fontSize=16;dashed=1;dashPattern=1 2;fillColor=#f5f5f5;fontColor=#333333;strokeColor=#666666;" vertex="1" parent="1">
          <mxGeometry x="1460" y="202" width="96" height="194" as="geometry" />
        </mxCell>
        <mxCell id="15ZIn56Vv13TprKXZhgK-16" value="" style="rounded=0;whiteSpace=wrap;html=1;fontSize=16;dashed=1;dashPattern=1 2;fillColor=#f5f5f5;fontColor=#333333;strokeColor=#666666;" vertex="1" parent="1">
          <mxGeometry x="1346" y="202" width="96" height="194" as="geometry" />
        </mxCell>
        <mxCell id="CWgTYuxvD6hOTrz8vUfx-7" style="edgeStyle=orthogonalEdgeStyle;rounded=0;orthogonalLoop=1;jettySize=auto;html=1;fontSize=14;" parent="1" source="CWgTYuxvD6hOTrz8vUfx-1" target="CWgTYuxvD6hOTrz8vUfx-6" edge="1">
          <mxGeometry relative="1" as="geometry" />
        </mxCell>
        <mxCell id="CWgTYuxvD6hOTrz8vUfx-9" style="edgeStyle=orthogonalEdgeStyle;rounded=0;orthogonalLoop=1;jettySize=auto;html=1;fontSize=14;" parent="1" source="CWgTYuxvD6hOTrz8vUfx-6" target="CWgTYuxvD6hOTrz8vUfx-8" edge="1">
          <mxGeometry relative="1" as="geometry" />
        </mxCell>
        <mxCell id="CWgTYuxvD6hOTrz8vUfx-6" value="Subscriber" style="rounded=0;whiteSpace=wrap;html=1;fontSize=14;" parent="1" vertex="1">
          <mxGeometry x="470" y="185" width="120" height="60" as="geometry" />
        </mxCell>
        <mxCell id="CWgTYuxvD6hOTrz8vUfx-11" value="is old _version" style="edgeStyle=orthogonalEdgeStyle;rounded=0;orthogonalLoop=1;jettySize=auto;html=1;fontSize=14;" parent="1" source="CWgTYuxvD6hOTrz8vUfx-8" target="CWgTYuxvD6hOTrz8vUfx-10" edge="1">
          <mxGeometry relative="1" as="geometry" />
        </mxCell>
        <mxCell id="CWgTYuxvD6hOTrz8vUfx-13" value="&lt;div&gt;is new &lt;br&gt;&lt;/div&gt;&lt;div&gt;_version&lt;/div&gt;" style="edgeStyle=orthogonalEdgeStyle;rounded=0;orthogonalLoop=1;jettySize=auto;html=1;fontSize=14;" parent="1" source="CWgTYuxvD6hOTrz8vUfx-8" target="CWgTYuxvD6hOTrz8vUfx-12" edge="1">
          <mxGeometry relative="1" as="geometry" />
        </mxCell>
        <mxCell id="CWgTYuxvD6hOTrz8vUfx-8" value="&lt;div&gt;Compare with _version &lt;br&gt;&lt;/div&gt;&lt;div&gt;in cache&lt;/div&gt;" style="rhombus;whiteSpace=wrap;html=1;fontSize=14;" parent="1" vertex="1">
          <mxGeometry x="435" y="290" width="190" height="80" as="geometry" />
        </mxCell>
        <mxCell id="CWgTYuxvD6hOTrz8vUfx-10" value="Ignore (Skip)" style="rounded=0;whiteSpace=wrap;html=1;fontSize=14;" parent="1" vertex="1">
          <mxGeometry x="470" y="440" width="120" height="60" as="geometry" />
        </mxCell>
        <mxCell id="CWgTYuxvD6hOTrz8vUfx-12" value="Rewrite new data in cache" style="rounded=0;whiteSpace=wrap;html=1;fontSize=14;" parent="1" vertex="1">
          <mxGeometry x="720" y="300" width="120" height="60" as="geometry" />
        </mxCell>
        <mxCell id="CWgTYuxvD6hOTrz8vUfx-14" value="Cách 1" style="swimlane;whiteSpace=wrap;html=1;fontSize=14;" parent="1" vertex="1">
          <mxGeometry x="30" y="115" width="860" height="435" as="geometry" />
        </mxCell>
        <mxCell id="CWgTYuxvD6hOTrz8vUfx-1" value="Kafka" style="sketch=0;aspect=fixed;pointerEvents=1;shadow=0;dashed=0;html=1;strokeColor=none;labelPosition=center;verticalLabelPosition=bottom;verticalAlign=top;align=center;fillColor=#00188D;shape=mxgraph.azure.queue_generic" parent="CWgTYuxvD6hOTrz8vUfx-14" vertex="1">
          <mxGeometry x="265" y="80.5" width="130" height="39" as="geometry" />
        </mxCell>
        <mxCell id="CWgTYuxvD6hOTrz8vUfx-5" value="pub" style="endArrow=classic;html=1;rounded=0;fontSize=14;exitX=1.027;exitY=0.444;exitDx=0;exitDy=0;exitPerimeter=0;" parent="CWgTYuxvD6hOTrz8vUfx-14" source="CWgTYuxvD6hOTrz8vUfx-2" edge="1">
          <mxGeometry width="50" height="50" relative="1" as="geometry">
            <mxPoint x="215" y="155" as="sourcePoint" />
            <mxPoint x="265" y="105" as="targetPoint" />
          </mxGeometry>
        </mxCell>
        <mxCell id="CWgTYuxvD6hOTrz8vUfx-2" value="Message" style="shape=callout;whiteSpace=wrap;html=1;perimeter=calloutPerimeter;fontSize=14;" parent="CWgTYuxvD6hOTrz8vUfx-14" vertex="1">
          <mxGeometry x="88" y="64" width="110" height="90" as="geometry" />
        </mxCell>
        <mxCell id="CWgTYuxvD6hOTrz8vUfx-15" value="Cách 2" style="swimlane;whiteSpace=wrap;html=1;fontSize=14;" parent="1" vertex="1">
          <mxGeometry x="30" y="630" width="850" height="540" as="geometry" />
        </mxCell>
        <mxCell id="CWgTYuxvD6hOTrz8vUfx-20" style="edgeStyle=orthogonalEdgeStyle;rounded=0;orthogonalLoop=1;jettySize=auto;html=1;fontSize=14;" parent="CWgTYuxvD6hOTrz8vUfx-15" source="CWgTYuxvD6hOTrz8vUfx-16" target="CWgTYuxvD6hOTrz8vUfx-19" edge="1">
          <mxGeometry relative="1" as="geometry" />
        </mxCell>
        <mxCell id="CWgTYuxvD6hOTrz8vUfx-16" value="Kafka" style="sketch=0;aspect=fixed;pointerEvents=1;shadow=0;dashed=0;html=1;strokeColor=none;labelPosition=center;verticalLabelPosition=bottom;verticalAlign=top;align=center;fillColor=#00188D;shape=mxgraph.azure.queue_generic" parent="CWgTYuxvD6hOTrz8vUfx-15" vertex="1">
          <mxGeometry x="240" y="170" width="130" height="39" as="geometry" />
        </mxCell>
        <mxCell id="CWgTYuxvD6hOTrz8vUfx-18" value="pub" style="edgeStyle=orthogonalEdgeStyle;rounded=0;orthogonalLoop=1;jettySize=auto;html=1;entryX=0;entryY=0.5;entryDx=0;entryDy=0;entryPerimeter=0;fontSize=14;" parent="CWgTYuxvD6hOTrz8vUfx-15" source="CWgTYuxvD6hOTrz8vUfx-17" target="CWgTYuxvD6hOTrz8vUfx-16" edge="1">
          <mxGeometry relative="1" as="geometry" />
        </mxCell>
        <mxCell id="CWgTYuxvD6hOTrz8vUfx-17" value="&lt;div&gt;Full product props&lt;/div&gt;&lt;div&gt;_vesion&lt;br&gt;&lt;/div&gt;" style="shape=callout;whiteSpace=wrap;html=1;perimeter=calloutPerimeter;fontSize=14;" parent="CWgTYuxvD6hOTrz8vUfx-15" vertex="1">
          <mxGeometry x="30" y="114.5" width="120" height="150" as="geometry" />
        </mxCell>
        <mxCell id="CWgTYuxvD6hOTrz8vUfx-22" style="edgeStyle=orthogonalEdgeStyle;rounded=0;orthogonalLoop=1;jettySize=auto;html=1;entryX=0.5;entryY=0;entryDx=0;entryDy=0;fontSize=14;" parent="CWgTYuxvD6hOTrz8vUfx-15" source="CWgTYuxvD6hOTrz8vUfx-19" target="CWgTYuxvD6hOTrz8vUfx-21" edge="1">
          <mxGeometry relative="1" as="geometry" />
        </mxCell>
        <mxCell id="CWgTYuxvD6hOTrz8vUfx-19" value="Subscriber" style="rounded=0;whiteSpace=wrap;html=1;fontSize=14;" parent="CWgTYuxvD6hOTrz8vUfx-15" vertex="1">
          <mxGeometry x="470" y="160" width="120" height="60" as="geometry" />
        </mxCell>
        <mxCell id="CWgTYuxvD6hOTrz8vUfx-24" value="is older" style="edgeStyle=orthogonalEdgeStyle;rounded=0;orthogonalLoop=1;jettySize=auto;html=1;fontSize=14;" parent="CWgTYuxvD6hOTrz8vUfx-15" source="CWgTYuxvD6hOTrz8vUfx-21" target="CWgTYuxvD6hOTrz8vUfx-23" edge="1">
          <mxGeometry relative="1" as="geometry" />
        </mxCell>
        <mxCell id="CWgTYuxvD6hOTrz8vUfx-26" value="is newer" style="edgeStyle=orthogonalEdgeStyle;rounded=0;orthogonalLoop=1;jettySize=auto;html=1;entryX=0;entryY=0.5;entryDx=0;entryDy=0;fontSize=14;" parent="CWgTYuxvD6hOTrz8vUfx-15" source="CWgTYuxvD6hOTrz8vUfx-21" target="CWgTYuxvD6hOTrz8vUfx-25" edge="1">
          <mxGeometry relative="1" as="geometry" />
        </mxCell>
        <mxCell id="CWgTYuxvD6hOTrz8vUfx-21" value="Check _version" style="rhombus;whiteSpace=wrap;html=1;fontSize=14;" parent="CWgTYuxvD6hOTrz8vUfx-15" vertex="1">
          <mxGeometry x="445" y="270" width="170" height="90" as="geometry" />
        </mxCell>
        <mxCell id="CWgTYuxvD6hOTrz8vUfx-23" value="ignore" style="rounded=0;whiteSpace=wrap;html=1;fontSize=14;" parent="CWgTYuxvD6hOTrz8vUfx-15" vertex="1">
          <mxGeometry x="470" y="400" width="120" height="60" as="geometry" />
        </mxCell>
        <mxCell id="CWgTYuxvD6hOTrz8vUfx-25" value="Rewrite cache data with message payload" style="rounded=0;whiteSpace=wrap;html=1;fontSize=14;" parent="CWgTYuxvD6hOTrz8vUfx-15" vertex="1">
          <mxGeometry x="700" y="285" width="140" height="60" as="geometry" />
        </mxCell>
        <mxCell id="15ZIn56Vv13TprKXZhgK-1" value="" style="endArrow=classic;html=1;rounded=0;fontSize=16;exitX=0;exitY=1;exitDx=0;exitDy=0;" edge="1" parent="1" source="15ZIn56Vv13TprKXZhgK-10">
          <mxGeometry width="50" height="50" relative="1" as="geometry">
            <mxPoint x="1076" y="204" as="sourcePoint" />
            <mxPoint x="1760" y="200" as="targetPoint" />
          </mxGeometry>
        </mxCell>
        <mxCell id="15ZIn56Vv13TprKXZhgK-2" value="" style="endArrow=classic;html=1;rounded=0;fontSize=16;exitX=0.25;exitY=1;exitDx=0;exitDy=0;" edge="1" parent="1" source="15ZIn56Vv13TprKXZhgK-11">
          <mxGeometry width="50" height="50" relative="1" as="geometry">
            <mxPoint x="1079" y="399" as="sourcePoint" />
            <mxPoint x="1763" y="395" as="targetPoint" />
          </mxGeometry>
        </mxCell>
        <mxCell id="15ZIn56Vv13TprKXZhgK-7" value="" style="rounded=0;whiteSpace=wrap;html=1;fontSize=16;dashed=1;dashPattern=1 2;fillColor=#f5f5f5;fontColor=#333333;strokeColor=#666666;" vertex="1" parent="1">
          <mxGeometry x="1460" y="202" width="96" height="194" as="geometry" />
        </mxCell>
        <mxCell id="15ZIn56Vv13TprKXZhgK-8" value="" style="rounded=0;whiteSpace=wrap;html=1;fontSize=16;dashed=1;dashPattern=1 2;fillColor=#f5f5f5;fontColor=#333333;strokeColor=#666666;" vertex="1" parent="1">
          <mxGeometry x="1346" y="202" width="96" height="194" as="geometry" />
        </mxCell>
        <mxCell id="15ZIn56Vv13TprKXZhgK-9" value="" style="rounded=0;whiteSpace=wrap;html=1;fontSize=16;dashed=1;dashPattern=1 2;fillColor=#f5f5f5;fontColor=#333333;strokeColor=#666666;" vertex="1" parent="1">
          <mxGeometry x="1574" y="202" width="96" height="194" as="geometry" />
        </mxCell>
        <mxCell id="15ZIn56Vv13TprKXZhgK-10" value="Application" style="text;html=1;strokeColor=none;fillColor=none;align=center;verticalAlign=middle;whiteSpace=wrap;rounded=0;fontSize=12;" vertex="1" parent="1">
          <mxGeometry x="1039" y="172" width="60" height="30" as="geometry" />
        </mxCell>
        <mxCell id="15ZIn56Vv13TprKXZhgK-11" value="Cache" style="text;html=1;strokeColor=none;fillColor=none;align=center;verticalAlign=middle;whiteSpace=wrap;rounded=0;fontSize=12;" vertex="1" parent="1">
          <mxGeometry x="1030" y="368" width="60" height="30" as="geometry" />
        </mxCell>
        <mxCell id="15ZIn56Vv13TprKXZhgK-12" value="" style="endArrow=classic;html=1;rounded=0;fontSize=16;" edge="1" parent="1">
          <mxGeometry width="50" height="50" relative="1" as="geometry">
            <mxPoint x="1036" y="301" as="sourcePoint" />
            <mxPoint x="1758" y="294" as="targetPoint" />
          </mxGeometry>
        </mxCell>
        <mxCell id="15ZIn56Vv13TprKXZhgK-13" value="Database" style="text;html=1;strokeColor=none;fillColor=none;align=center;verticalAlign=middle;whiteSpace=wrap;rounded=0;fontSize=12;" vertex="1" parent="1">
          <mxGeometry x="1037" y="270" width="60" height="30" as="geometry" />
        </mxCell>
        <mxCell id="15ZIn56Vv13TprKXZhgK-17" value="READ" style="endArrow=classic;html=1;rounded=0;fontSize=12;" edge="1" parent="1">
          <mxGeometry x="0.3243" y="-14" width="50" height="50" relative="1" as="geometry">
            <mxPoint x="1130" y="204" as="sourcePoint" />
            <mxPoint x="1157" y="394" as="targetPoint" />
            <mxPoint as="offset" />
          </mxGeometry>
        </mxCell>
        <mxCell id="15ZIn56Vv13TprKXZhgK-18" value="FILL" style="endArrow=classic;html=1;rounded=0;fontSize=12;entryX=0.25;entryY=1;entryDx=0;entryDy=0;" edge="1" parent="1" target="15ZIn56Vv13TprKXZhgK-9">
          <mxGeometry x="-0.4431" y="1" width="50" height="50" relative="1" as="geometry">
            <mxPoint x="1176" y="396" as="sourcePoint" />
            <mxPoint x="1202" y="299" as="targetPoint" />
            <Array as="points">
              <mxPoint x="1191" y="302" />
            </Array>
            <mxPoint as="offset" />
          </mxGeometry>
        </mxCell>
        <mxCell id="15ZIn56Vv13TprKXZhgK-19" value="WITE" style="endArrow=classic;html=1;rounded=0;fontSize=12;" edge="1" parent="1">
          <mxGeometry width="50" height="50" relative="1" as="geometry">
            <mxPoint x="1280" y="206" as="sourcePoint" />
            <mxPoint x="1317" y="298" as="targetPoint" />
          </mxGeometry>
        </mxCell>
        <mxCell id="15ZIn56Vv13TprKXZhgK-20" value="INVALIDATE" style="endArrow=classic;html=1;rounded=0;fontSize=12;entryX=0.75;entryY=1;entryDx=0;entryDy=0;" edge="1" parent="1" target="15ZIn56Vv13TprKXZhgK-8">
          <mxGeometry x="-0.56" y="3" width="50" height="50" relative="1" as="geometry">
            <mxPoint x="1360" y="299" as="sourcePoint" />
            <mxPoint x="1430" y="328" as="targetPoint" />
            <mxPoint as="offset" />
          </mxGeometry>
        </mxCell>
        <mxCell id="15ZIn56Vv13TprKXZhgK-27" value="INVALIDATE PROCESSING" style="endArrow=none;html=1;endSize=12;startArrow=none;startSize=14;startFill=0;edgeStyle=orthogonalEdgeStyle;align=center;verticalAlign=bottom;endFill=0;rounded=0;dashed=1;dashPattern=1 4;strokeWidth=1;fontSize=12;fontColor=#FFB570;" edge="1" parent="1">
          <mxGeometry y="3" relative="1" as="geometry">
            <mxPoint x="1380" y="421" as="sourcePoint" />
            <mxPoint x="1540" y="421" as="targetPoint" />
          </mxGeometry>
        </mxCell>
      </root>
    </mxGraphModel>
  </diagram>
  <diagram id="VbjIHsG2yizhQQNCSdFp" name="mem-cache">
    <mxGraphModel dx="1083" dy="560" grid="1" gridSize="10" guides="1" tooltips="1" connect="1" arrows="1" fold="1" page="1" pageScale="1" pageWidth="850" pageHeight="1100" math="0" shadow="0">
      <root>
        <mxCell id="0" />
        <mxCell id="1" parent="0" />
        <mxCell id="5pqI-scbJ90UlD7BS7ZB-6" style="edgeStyle=orthogonalEdgeStyle;rounded=0;orthogonalLoop=1;jettySize=auto;html=1;" parent="1" source="5pqI-scbJ90UlD7BS7ZB-1" target="5pqI-scbJ90UlD7BS7ZB-2" edge="1">
          <mxGeometry relative="1" as="geometry" />
        </mxCell>
        <mxCell id="5pqI-scbJ90UlD7BS7ZB-1" value="Put value in Mem_Cache" style="rounded=0;whiteSpace=wrap;html=1;" parent="1" vertex="1">
          <mxGeometry x="140" y="190" width="120" height="60" as="geometry" />
        </mxCell>
        <mxCell id="5pqI-scbJ90UlD7BS7ZB-7" style="edgeStyle=orthogonalEdgeStyle;rounded=0;orthogonalLoop=1;jettySize=auto;html=1;" parent="1" source="5pqI-scbJ90UlD7BS7ZB-2" target="5pqI-scbJ90UlD7BS7ZB-3" edge="1">
          <mxGeometry relative="1" as="geometry" />
        </mxCell>
        <mxCell id="5pqI-scbJ90UlD7BS7ZB-2" value="Get in Redis" style="rounded=0;whiteSpace=wrap;html=1;" parent="1" vertex="1">
          <mxGeometry x="340" y="190" width="120" height="60" as="geometry" />
        </mxCell>
        <mxCell id="5pqI-scbJ90UlD7BS7ZB-8" value="miss" style="edgeStyle=orthogonalEdgeStyle;rounded=0;orthogonalLoop=1;jettySize=auto;html=1;entryX=0.5;entryY=0;entryDx=0;entryDy=0;" parent="1" source="5pqI-scbJ90UlD7BS7ZB-3" target="5pqI-scbJ90UlD7BS7ZB-4" edge="1">
          <mxGeometry relative="1" as="geometry" />
        </mxCell>
        <mxCell id="5pqI-scbJ90UlD7BS7ZB-11" value="hit" style="edgeStyle=orthogonalEdgeStyle;rounded=0;orthogonalLoop=1;jettySize=auto;html=1;entryX=0;entryY=0.5;entryDx=0;entryDy=0;" parent="1" source="5pqI-scbJ90UlD7BS7ZB-3" target="5pqI-scbJ90UlD7BS7ZB-10" edge="1">
          <mxGeometry relative="1" as="geometry" />
        </mxCell>
        <mxCell id="5pqI-scbJ90UlD7BS7ZB-3" value="Redis cache" style="rhombus;whiteSpace=wrap;html=1;" parent="1" vertex="1">
          <mxGeometry x="530" y="180" width="160" height="80" as="geometry" />
        </mxCell>
        <mxCell id="5pqI-scbJ90UlD7BS7ZB-9" style="edgeStyle=orthogonalEdgeStyle;rounded=0;orthogonalLoop=1;jettySize=auto;html=1;entryX=0.5;entryY=0;entryDx=0;entryDy=0;" parent="1" source="5pqI-scbJ90UlD7BS7ZB-4" target="5pqI-scbJ90UlD7BS7ZB-5" edge="1">
          <mxGeometry relative="1" as="geometry" />
        </mxCell>
        <mxCell id="5pqI-scbJ90UlD7BS7ZB-4" value="Get data from db" style="rounded=0;whiteSpace=wrap;html=1;" parent="1" vertex="1">
          <mxGeometry x="550" y="310" width="120" height="60" as="geometry" />
        </mxCell>
        <mxCell id="5pqI-scbJ90UlD7BS7ZB-12" style="edgeStyle=orthogonalEdgeStyle;rounded=0;orthogonalLoop=1;jettySize=auto;html=1;entryX=0.583;entryY=1;entryDx=0;entryDy=0;entryPerimeter=0;" parent="1" source="5pqI-scbJ90UlD7BS7ZB-5" target="5pqI-scbJ90UlD7BS7ZB-10" edge="1">
          <mxGeometry relative="1" as="geometry" />
        </mxCell>
        <mxCell id="5pqI-scbJ90UlD7BS7ZB-5" value="Notify Redis manager node to cache miss value" style="rounded=0;whiteSpace=wrap;html=1;" parent="1" vertex="1">
          <mxGeometry x="550" y="420" width="120" height="60" as="geometry" />
        </mxCell>
        <mxCell id="5pqI-scbJ90UlD7BS7ZB-10" value="Set in Mem_cache" style="rounded=0;whiteSpace=wrap;html=1;" parent="1" vertex="1">
          <mxGeometry x="780" y="190" width="120" height="60" as="geometry" />
        </mxCell>
      </root>
    </mxGraphModel>
  </diagram>
  <diagram id="aRrSXYbGALixecp77XpP" name="Page-6">
    <mxGraphModel dx="1083" dy="560" grid="1" gridSize="10" guides="1" tooltips="1" connect="1" arrows="1" fold="1" page="1" pageScale="1" pageWidth="850" pageHeight="1100" math="0" shadow="0">
      <root>
        <mxCell id="0" />
        <mxCell id="1" parent="0" />
        <mxCell id="N_hbKpk23PzIfrB8fHq4-7" value="&lt;div&gt;get Ids + total &lt;br&gt;&lt;/div&gt;&lt;div&gt;item count&lt;/div&gt;" style="edgeStyle=orthogonalEdgeStyle;rounded=0;orthogonalLoop=1;jettySize=auto;html=1;fontSize=15;" parent="1" source="N_hbKpk23PzIfrB8fHq4-1" target="N_hbKpk23PzIfrB8fHq4-2" edge="1">
          <mxGeometry relative="1" as="geometry" />
        </mxCell>
        <mxCell id="N_hbKpk23PzIfrB8fHq4-1" value="getList id by keyword" style="rounded=0;whiteSpace=wrap;html=1;fontSize=15;" parent="1" vertex="1">
          <mxGeometry x="30" y="200" width="120" height="60" as="geometry" />
        </mxCell>
        <mxCell id="N_hbKpk23PzIfrB8fHq4-5" value="&lt;div&gt;query &amp;amp; cache result &lt;br&gt;&lt;/div&gt;&lt;div&gt;total item in DB (24h)&lt;br&gt;&lt;/div&gt;" style="edgeStyle=orthogonalEdgeStyle;rounded=0;orthogonalLoop=1;jettySize=auto;html=1;fontSize=15;" parent="1" source="N_hbKpk23PzIfrB8fHq4-2" target="N_hbKpk23PzIfrB8fHq4-4" edge="1">
          <mxGeometry relative="1" as="geometry" />
        </mxCell>
        <mxCell id="N_hbKpk23PzIfrB8fHq4-2" value="Exec procedure" style="rounded=0;whiteSpace=wrap;html=1;fontSize=15;" parent="1" vertex="1">
          <mxGeometry x="305" y="200" width="120" height="60" as="geometry" />
        </mxCell>
        <mxCell id="N_hbKpk23PzIfrB8fHq4-4" value="DB" style="shape=cylinder3;whiteSpace=wrap;html=1;boundedLbl=1;backgroundOutline=1;size=15;fontSize=15;" parent="1" vertex="1">
          <mxGeometry x="640" y="190" width="60" height="80" as="geometry" />
        </mxCell>
      </root>
    </mxGraphModel>
  </diagram>
  <diagram id="lnrPiAhaNWlII5qdmygY" name="cdn">
    <mxGraphModel dx="1408" dy="510" grid="0" gridSize="10" guides="1" tooltips="1" connect="1" arrows="1" fold="1" page="0" pageScale="1" pageWidth="850" pageHeight="1100" math="0" shadow="0">
      <root>
        <mxCell id="0" />
        <mxCell id="1" parent="0" />
        <mxCell id="riQxsVqFn8Z1_zuKLZxi-3" style="edgeStyle=orthogonalEdgeStyle;rounded=0;orthogonalLoop=1;jettySize=auto;html=1;" parent="1" source="riQxsVqFn8Z1_zuKLZxi-1" target="riQxsVqFn8Z1_zuKLZxi-2" edge="1">
          <mxGeometry relative="1" as="geometry" />
        </mxCell>
        <mxCell id="riQxsVqFn8Z1_zuKLZxi-1" value="Client" style="shape=umlActor;verticalLabelPosition=bottom;verticalAlign=top;html=1;outlineConnect=0;" parent="1" vertex="1">
          <mxGeometry x="-13" y="315" width="30" height="60" as="geometry" />
        </mxCell>
        <mxCell id="riQxsVqFn8Z1_zuKLZxi-6" value="Load" style="edgeStyle=orthogonalEdgeStyle;rounded=0;orthogonalLoop=1;jettySize=auto;html=1;" parent="1" source="riQxsVqFn8Z1_zuKLZxi-2" target="riQxsVqFn8Z1_zuKLZxi-5" edge="1">
          <mxGeometry relative="1" as="geometry" />
        </mxCell>
        <mxCell id="riQxsVqFn8Z1_zuKLZxi-2" value="Browser" style="aspect=fixed;html=1;points=[];align=center;image;fontSize=12;image=img/lib/azure2/general/Browser.svg;" parent="1" vertex="1">
          <mxGeometry x="151" y="321" width="60" height="48" as="geometry" />
        </mxCell>
        <mxCell id="riQxsVqFn8Z1_zuKLZxi-4" value="CloudFront (CDN)" style="outlineConnect=0;dashed=0;verticalLabelPosition=bottom;verticalAlign=top;align=center;html=1;shape=mxgraph.aws3.cloudfront;fillColor=#F58536;gradientColor=none;" parent="1" vertex="1">
          <mxGeometry x="601" y="134" width="59" height="74" as="geometry" />
        </mxCell>
        <mxCell id="riQxsVqFn8Z1_zuKLZxi-7" value="static files" style="edgeStyle=orthogonalEdgeStyle;rounded=0;orthogonalLoop=1;jettySize=auto;html=1;" parent="1" source="riQxsVqFn8Z1_zuKLZxi-5" target="riQxsVqFn8Z1_zuKLZxi-4" edge="1">
          <mxGeometry relative="1" as="geometry">
            <Array as="points">
              <mxPoint x="457" y="345" />
              <mxPoint x="457" y="177" />
            </Array>
          </mxGeometry>
        </mxCell>
        <mxCell id="riQxsVqFn8Z1_zuKLZxi-9" value="data" style="edgeStyle=orthogonalEdgeStyle;rounded=0;orthogonalLoop=1;jettySize=auto;html=1;entryX=0;entryY=0.5;entryDx=0;entryDy=0;" parent="1" source="riQxsVqFn8Z1_zuKLZxi-5" target="riQxsVqFn8Z1_zuKLZxi-8" edge="1">
          <mxGeometry x="0.2291" y="7" relative="1" as="geometry">
            <mxPoint as="offset" />
          </mxGeometry>
        </mxCell>
        <mxCell id="riQxsVqFn8Z1_zuKLZxi-5" value="React" style="shape=image;html=1;verticalAlign=top;verticalLabelPosition=bottom;labelBackgroundColor=#ffffff;imageAspect=0;aspect=fixed;image=https://cdn1.iconfinder.com/data/icons/unicons-line-vol-5/24/react-128.png" parent="1" vertex="1">
          <mxGeometry x="332" y="313.5" width="63" height="63" as="geometry" />
        </mxCell>
        <mxCell id="riQxsVqFn8Z1_zuKLZxi-8" value="Server" style="rounded=0;whiteSpace=wrap;html=1;" parent="1" vertex="1">
          <mxGeometry x="574" y="315" width="120" height="60" as="geometry" />
        </mxCell>
        <mxCell id="xbtdQKd4IhVA4t5FBWKR-4" style="edgeStyle=none;rounded=0;orthogonalLoop=1;jettySize=auto;html=1;entryX=0;entryY=0.5;entryDx=0;entryDy=0;" edge="1" parent="1" source="6xue3iSrjmgCxLAy6qxs-11" target="6xue3iSrjmgCxLAy6qxs-12">
          <mxGeometry relative="1" as="geometry" />
        </mxCell>
        <mxCell id="6xue3iSrjmgCxLAy6qxs-11" value="Client" style="shape=umlActor;verticalLabelPosition=bottom;verticalAlign=top;html=1;outlineConnect=0;" vertex="1" parent="1">
          <mxGeometry x="-100" y="656" width="30" height="60" as="geometry" />
        </mxCell>
        <mxCell id="XQ-KbbBZUxDwZ7LtlLCT-3" style="rounded=0;orthogonalLoop=1;jettySize=auto;html=1;exitX=1;exitY=0.5;exitDx=0;exitDy=0;entryX=0.01;entryY=0.6;entryDx=0;entryDy=0;entryPerimeter=0;" edge="1" parent="1" source="6xue3iSrjmgCxLAy6qxs-12">
          <mxGeometry relative="1" as="geometry">
            <mxPoint x="187.20000000000005" y="629.0000000000002" as="targetPoint" />
          </mxGeometry>
        </mxCell>
        <mxCell id="xbtdQKd4IhVA4t5FBWKR-2" style="edgeStyle=none;rounded=0;orthogonalLoop=1;jettySize=auto;html=1;entryX=0;entryY=0.5;entryDx=0;entryDy=0;exitX=1;exitY=0.5;exitDx=0;exitDy=0;" edge="1" parent="1" source="6xue3iSrjmgCxLAy6qxs-12">
          <mxGeometry relative="1" as="geometry">
            <mxPoint x="186" y="742" as="targetPoint" />
          </mxGeometry>
        </mxCell>
        <mxCell id="6xue3iSrjmgCxLAy6qxs-12" value="Handle request" style="rounded=0;whiteSpace=wrap;html=1;" vertex="1" parent="1">
          <mxGeometry x="-5" y="656" width="120" height="60" as="geometry" />
        </mxCell>
        <mxCell id="XQ-KbbBZUxDwZ7LtlLCT-6" style="rounded=0;orthogonalLoop=1;jettySize=auto;html=1;entryX=0;entryY=0.5;entryDx=0;entryDy=0;exitX=1;exitY=0.5;exitDx=0;exitDy=0;" edge="1" parent="1" target="XQ-KbbBZUxDwZ7LtlLCT-4">
          <mxGeometry relative="1" as="geometry">
            <mxPoint x="306" y="623" as="sourcePoint" />
          </mxGeometry>
        </mxCell>
        <mxCell id="xbtdQKd4IhVA4t5FBWKR-8" style="edgeStyle=none;rounded=0;orthogonalLoop=1;jettySize=auto;html=1;" edge="1" parent="1" source="XQ-KbbBZUxDwZ7LtlLCT-4" target="xbtdQKd4IhVA4t5FBWKR-7">
          <mxGeometry relative="1" as="geometry" />
        </mxCell>
        <mxCell id="Mhq8gwWjZQEeHyuezOz1-2" style="edgeStyle=none;rounded=0;orthogonalLoop=1;jettySize=auto;html=1;entryX=0.5;entryY=1;entryDx=0;entryDy=0;exitX=0.5;exitY=0;exitDx=0;exitDy=0;" edge="1" parent="1" source="XQ-KbbBZUxDwZ7LtlLCT-4" target="Mhq8gwWjZQEeHyuezOz1-1">
          <mxGeometry relative="1" as="geometry">
            <mxPoint x="532" y="680" as="sourcePoint" />
          </mxGeometry>
        </mxCell>
        <mxCell id="XQ-KbbBZUxDwZ7LtlLCT-4" value="Local memory cache" style="rounded=0;whiteSpace=wrap;html=1;" vertex="1" parent="1">
          <mxGeometry x="368" y="653" width="120" height="60" as="geometry" />
        </mxCell>
        <mxCell id="XQ-KbbBZUxDwZ7LtlLCT-5" value="Redis cache" style="rounded=0;whiteSpace=wrap;html=1;" vertex="1" parent="1">
          <mxGeometry x="555" y="386" width="120" height="60" as="geometry" />
        </mxCell>
        <mxCell id="xbtdQKd4IhVA4t5FBWKR-3" style="edgeStyle=none;rounded=0;orthogonalLoop=1;jettySize=auto;html=1;entryX=0;entryY=0.5;entryDx=0;entryDy=0;exitX=1;exitY=0.5;exitDx=0;exitDy=0;" edge="1" parent="1" target="XQ-KbbBZUxDwZ7LtlLCT-4">
          <mxGeometry relative="1" as="geometry">
            <mxPoint x="306" y="742" as="sourcePoint" />
          </mxGeometry>
        </mxCell>
        <mxCell id="xbtdQKd4IhVA4t5FBWKR-7" value="Database" style="shape=cylinder3;whiteSpace=wrap;html=1;boundedLbl=1;backgroundOutline=1;size=15;" vertex="1" parent="1">
          <mxGeometry x="570" y="647" width="99" height="69" as="geometry" />
        </mxCell>
        <mxCell id="xbtdQKd4IhVA4t5FBWKR-9" value="Single product processor" style="shape=process;whiteSpace=wrap;html=1;backgroundOutline=1;" vertex="1" parent="1">
          <mxGeometry x="185" y="596" width="120" height="60" as="geometry" />
        </mxCell>
        <mxCell id="xbtdQKd4IhVA4t5FBWKR-10" value="Paging product processor" style="shape=process;whiteSpace=wrap;html=1;backgroundOutline=1;" vertex="1" parent="1">
          <mxGeometry x="185" y="712" width="120" height="60" as="geometry" />
        </mxCell>
        <mxCell id="Mhq8gwWjZQEeHyuezOz1-1" value="Redis" style="rounded=0;whiteSpace=wrap;html=1;" vertex="1" parent="1">
          <mxGeometry x="368" y="522" width="120" height="60" as="geometry" />
        </mxCell>
      </root>
    </mxGraphModel>
  </diagram>
  <diagram id="BpZVR6DHbsrHF8aNGwHd" name="redis">
    <mxGraphModel dx="1483" dy="560" grid="0" gridSize="10" guides="1" tooltips="1" connect="1" arrows="1" fold="1" page="0" pageScale="1" pageWidth="850" pageHeight="1100" math="0" shadow="0">
      <root>
        <mxCell id="0" />
        <mxCell id="1" parent="0" />
        <mxCell id="pKP9K8Aw5CknCFN4a1Wv-4" style="edgeStyle=orthogonalEdgeStyle;rounded=0;orthogonalLoop=1;jettySize=auto;html=1;" parent="1" source="n1XUkJS6uhsJjj73f7-b-2" target="pKP9K8Aw5CknCFN4a1Wv-2" edge="1">
          <mxGeometry relative="1" as="geometry" />
        </mxCell>
        <mxCell id="n1XUkJS6uhsJjj73f7-b-2" value="Customer&#xa;gateway" style="sketch=0;outlineConnect=0;fontColor=#232F3E;gradientColor=none;strokeColor=#232F3E;fillColor=#ffffff;dashed=0;verticalLabelPosition=bottom;verticalAlign=top;align=center;html=1;fontSize=12;fontStyle=0;aspect=fixed;shape=mxgraph.aws4.resourceIcon;resIcon=mxgraph.aws4.customer_gateway;" parent="1" vertex="1">
          <mxGeometry x="-63" y="196" width="60" height="60" as="geometry" />
        </mxCell>
        <mxCell id="n1XUkJS6uhsJjj73f7-b-4" value="send request" style="edgeStyle=orthogonalEdgeStyle;rounded=0;orthogonalLoop=1;jettySize=auto;html=1;" parent="1" source="n1XUkJS6uhsJjj73f7-b-3" target="n1XUkJS6uhsJjj73f7-b-2" edge="1">
          <mxGeometry relative="1" as="geometry" />
        </mxCell>
        <mxCell id="n1XUkJS6uhsJjj73f7-b-3" value="Client" style="shape=umlActor;verticalLabelPosition=bottom;verticalAlign=top;html=1;outlineConnect=0;" parent="1" vertex="1">
          <mxGeometry x="-235" y="196" width="30" height="60" as="geometry" />
        </mxCell>
        <mxCell id="pKP9K8Aw5CknCFN4a1Wv-9" value="get data" style="edgeStyle=orthogonalEdgeStyle;rounded=0;orthogonalLoop=1;jettySize=auto;html=1;entryX=0.5;entryY=1;entryDx=0;entryDy=0;entryPerimeter=0;" parent="1" source="pKP9K8Aw5CknCFN4a1Wv-2" target="pKP9K8Aw5CknCFN4a1Wv-7" edge="1">
          <mxGeometry relative="1" as="geometry" />
        </mxCell>
        <mxCell id="pKP9K8Aw5CknCFN4a1Wv-2" value="&lt;b&gt;golang node&lt;/b&gt;" style="points=[[0,0],[0.25,0],[0.5,0],[0.75,0],[1,0],[1,0.25],[1,0.5],[1,0.75],[1,1],[0.75,1],[0.5,1],[0.25,1],[0,1],[0,0.75],[0,0.5],[0,0.25]];outlineConnect=0;html=1;whiteSpace=wrap;fontSize=16;fontStyle=0;container=1;pointerEvents=0;collapsible=0;recursiveResize=0;shape=mxgraph.aws4.group;grIcon=mxgraph.aws4.group_ec2_instance_contents;verticalAlign=top;align=left;spacingLeft=30;dashed=0;" parent="1" vertex="1">
          <mxGeometry x="49" y="192" width="117" height="68" as="geometry" />
        </mxCell>
        <mxCell id="pKP9K8Aw5CknCFN4a1Wv-7" value="" style="sketch=0;aspect=fixed;html=1;points=[];align=center;image;fontSize=12;image=img/lib/mscae/Cache_Redis_Product.svg;" parent="1" vertex="1">
          <mxGeometry x="257" y="121" width="50" height="42" as="geometry" />
        </mxCell>
      </root>
    </mxGraphModel>
  </diagram>
  <diagram id="ZKiFUsoYhq3Z7YNDLaDM" name="master-slave">
    <mxGraphModel dx="810" dy="612" grid="0" gridSize="10" guides="1" tooltips="1" connect="1" arrows="1" fold="1" page="0" pageScale="1" pageWidth="850" pageHeight="1100" math="0" shadow="0">
      <root>
        <mxCell id="0" />
        <mxCell id="1" parent="0" />
        <mxCell id="hmjdW2nWOfqkYEKnz30L-1" value="" style="swimlane;startSize=0;dashed=1;fontSize=16;" parent="1" vertex="1">
          <mxGeometry x="803" y="226.25" width="108" height="250.5" as="geometry" />
        </mxCell>
        <mxCell id="hmjdW2nWOfqkYEKnz30L-2" value="&lt;b&gt;DB&lt;/b&gt;" style="shape=cylinder3;whiteSpace=wrap;html=1;boundedLbl=1;backgroundOutline=1;size=15;fontSize=20;" parent="hmjdW2nWOfqkYEKnz30L-1" vertex="1">
          <mxGeometry x="35.1" y="32.25" width="43" height="73" as="geometry" />
        </mxCell>
        <mxCell id="hmjdW2nWOfqkYEKnz30L-3" value="&lt;b&gt;DB&lt;/b&gt;" style="shape=cylinder3;whiteSpace=wrap;html=1;boundedLbl=1;backgroundOutline=1;size=15;fontSize=20;" parent="hmjdW2nWOfqkYEKnz30L-1" vertex="1">
          <mxGeometry x="32.5" y="131.25" width="43" height="73" as="geometry" />
        </mxCell>
        <mxCell id="hmjdW2nWOfqkYEKnz30L-4" value="read" style="edgeStyle=orthogonalEdgeStyle;rounded=0;orthogonalLoop=1;jettySize=auto;html=1;fontSize=12;" parent="1" source="hmjdW2nWOfqkYEKnz30L-5" target="hmjdW2nWOfqkYEKnz30L-1" edge="1">
          <mxGeometry relative="1" as="geometry" />
        </mxCell>
        <mxCell id="hmjdW2nWOfqkYEKnz30L-5" value="" style="swimlane;startSize=0;dashed=1;fontSize=16;" parent="1" vertex="1">
          <mxGeometry x="400" y="245" width="261" height="213" as="geometry" />
        </mxCell>
        <mxCell id="hmjdW2nWOfqkYEKnz30L-6" value="&lt;b&gt;golang node&lt;/b&gt;" style="points=[[0,0],[0.25,0],[0.5,0],[0.75,0],[1,0],[1,0.25],[1,0.5],[1,0.75],[1,1],[0.75,1],[0.5,1],[0.25,1],[0,1],[0,0.75],[0,0.5],[0,0.25]];outlineConnect=0;html=1;whiteSpace=wrap;fontSize=16;fontStyle=0;container=1;pointerEvents=0;collapsible=0;recursiveResize=0;shape=mxgraph.aws4.group;grIcon=mxgraph.aws4.group_ec2_instance_contents;verticalAlign=top;align=left;spacingLeft=30;dashed=0;" parent="hmjdW2nWOfqkYEKnz30L-5" vertex="1">
          <mxGeometry x="108" y="111" width="116" height="68.5" as="geometry" />
        </mxCell>
        <mxCell id="hmjdW2nWOfqkYEKnz30L-8" value="&lt;b&gt;golang node&lt;/b&gt;" style="points=[[0,0],[0.25,0],[0.5,0],[0.75,0],[1,0],[1,0.25],[1,0.5],[1,0.75],[1,1],[0.75,1],[0.5,1],[0.25,1],[0,1],[0,0.75],[0,0.5],[0,0.25]];outlineConnect=0;html=1;whiteSpace=wrap;fontSize=16;fontStyle=0;container=1;pointerEvents=0;collapsible=0;recursiveResize=0;shape=mxgraph.aws4.group;grIcon=mxgraph.aws4.group_ec2_instance_contents;verticalAlign=top;align=left;spacingLeft=30;dashed=0;" parent="hmjdW2nWOfqkYEKnz30L-5" vertex="1">
          <mxGeometry x="108" y="26" width="117" height="68" as="geometry" />
        </mxCell>
        <mxCell id="hmjdW2nWOfqkYEKnz30L-9" value="Replica" style="text;html=1;strokeColor=none;fillColor=none;align=center;verticalAlign=middle;whiteSpace=wrap;rounded=0;fontSize=14;" parent="1" vertex="1">
          <mxGeometry x="784" y="196.25" width="60" height="30" as="geometry" />
        </mxCell>
        <mxCell id="siM70Fuhf9VnV6BMFrEv-3" value="log" style="edgeStyle=orthogonalEdgeStyle;rounded=0;orthogonalLoop=1;jettySize=auto;html=1;fontSize=12;" parent="1" source="siM70Fuhf9VnV6BMFrEv-1" target="hmjdW2nWOfqkYEKnz30L-1" edge="1">
          <mxGeometry relative="1" as="geometry" />
        </mxCell>
        <mxCell id="siM70Fuhf9VnV6BMFrEv-1" value="&lt;b&gt;DB&lt;/b&gt;" style="shape=cylinder3;whiteSpace=wrap;html=1;boundedLbl=1;backgroundOutline=1;size=15;fontSize=20;" parent="1" vertex="1">
          <mxGeometry x="835.5" y="54" width="43" height="73" as="geometry" />
        </mxCell>
        <mxCell id="siM70Fuhf9VnV6BMFrEv-2" value="Master" style="text;html=1;strokeColor=none;fillColor=none;align=center;verticalAlign=middle;whiteSpace=wrap;rounded=0;" parent="1" vertex="1">
          <mxGeometry x="793" y="130" width="54" height="11" as="geometry" />
        </mxCell>
      </root>
    </mxGraphModel>
  </diagram>
  <diagram id="QPsjxUnCdySaM-D_eDQv" name="load-balancer">
    <mxGraphModel dx="1483" dy="560" grid="0" gridSize="10" guides="1" tooltips="1" connect="1" arrows="1" fold="1" page="0" pageScale="1" pageWidth="850" pageHeight="1100" math="0" shadow="0">
      <root>
        <mxCell id="0" />
        <mxCell id="1" parent="0" />
        <mxCell id="CAWS1c23a_xCzH4P-0fV-4" style="edgeStyle=orthogonalEdgeStyle;rounded=0;orthogonalLoop=1;jettySize=auto;html=1;entryX=0;entryY=0.5;entryDx=0;entryDy=0;entryPerimeter=0;fontSize=12;" parent="1" source="VZaHuDzs91ahdxpg4j_f-1" target="VZaHuDzs91ahdxpg4j_f-2" edge="1">
          <mxGeometry relative="1" as="geometry" />
        </mxCell>
        <mxCell id="VZaHuDzs91ahdxpg4j_f-1" value="Actor" style="shape=umlActor;verticalLabelPosition=bottom;verticalAlign=top;html=1;outlineConnect=0;fontSize=12;" parent="1" vertex="1">
          <mxGeometry x="-108" y="281" width="30" height="60" as="geometry" />
        </mxCell>
        <mxCell id="CAWS1c23a_xCzH4P-0fV-5" style="edgeStyle=orthogonalEdgeStyle;rounded=0;orthogonalLoop=1;jettySize=auto;html=1;entryX=0;entryY=0.75;entryDx=0;entryDy=0;fontSize=12;" parent="1" source="VZaHuDzs91ahdxpg4j_f-2" target="CAWS1c23a_xCzH4P-0fV-1" edge="1">
          <mxGeometry relative="1" as="geometry">
            <Array as="points">
              <mxPoint x="108" y="311" />
              <mxPoint x="108" y="223" />
            </Array>
          </mxGeometry>
        </mxCell>
        <mxCell id="CAWS1c23a_xCzH4P-0fV-6" style="edgeStyle=orthogonalEdgeStyle;rounded=0;orthogonalLoop=1;jettySize=auto;html=1;fontSize=12;" parent="1" source="VZaHuDzs91ahdxpg4j_f-2" target="CAWS1c23a_xCzH4P-0fV-2" edge="1">
          <mxGeometry relative="1" as="geometry" />
        </mxCell>
        <mxCell id="CAWS1c23a_xCzH4P-0fV-7" style="edgeStyle=orthogonalEdgeStyle;rounded=0;orthogonalLoop=1;jettySize=auto;html=1;entryX=0;entryY=0.5;entryDx=0;entryDy=0;fontSize=12;" parent="1" source="VZaHuDzs91ahdxpg4j_f-2" target="CAWS1c23a_xCzH4P-0fV-3" edge="1">
          <mxGeometry relative="1" as="geometry">
            <Array as="points">
              <mxPoint x="108" y="311" />
              <mxPoint x="108" y="420" />
            </Array>
          </mxGeometry>
        </mxCell>
        <mxCell id="VZaHuDzs91ahdxpg4j_f-2" value="Load balancer" style="sketch=0;points=[[0.015,0.015,0],[0.985,0.015,0],[0.985,0.985,0],[0.015,0.985,0],[0.25,0,0],[0.5,0,0],[0.75,0,0],[1,0.25,0],[1,0.5,0],[1,0.75,0],[0.75,1,0],[0.5,1,0],[0.25,1,0],[0,0.75,0],[0,0.5,0],[0,0.25,0]];verticalLabelPosition=bottom;html=1;verticalAlign=top;aspect=fixed;align=center;pointerEvents=1;shape=mxgraph.cisco19.rect;prIcon=load_balancer;fillColor=#FAFAFA;strokeColor=#005073;fontSize=12;" parent="1" vertex="1">
          <mxGeometry x="7" y="286" width="64" height="50" as="geometry" />
        </mxCell>
        <mxCell id="CAWS1c23a_xCzH4P-0fV-1" value="&lt;b&gt;golang node&lt;/b&gt;" style="points=[[0,0],[0.25,0],[0.5,0],[0.75,0],[1,0],[1,0.25],[1,0.5],[1,0.75],[1,1],[0.75,1],[0.5,1],[0.25,1],[0,1],[0,0.75],[0,0.5],[0,0.25]];outlineConnect=0;html=1;whiteSpace=wrap;fontSize=16;fontStyle=0;container=1;pointerEvents=0;collapsible=0;recursiveResize=0;shape=mxgraph.aws4.group;grIcon=mxgraph.aws4.group_ec2_instance_contents;verticalAlign=top;align=left;spacingLeft=30;dashed=0;" parent="1" vertex="1">
          <mxGeometry x="177" y="172" width="117" height="68" as="geometry" />
        </mxCell>
        <mxCell id="CAWS1c23a_xCzH4P-0fV-2" value="&lt;b&gt;golang node&lt;/b&gt;" style="points=[[0,0],[0.25,0],[0.5,0],[0.75,0],[1,0],[1,0.25],[1,0.5],[1,0.75],[1,1],[0.75,1],[0.5,1],[0.25,1],[0,1],[0,0.75],[0,0.5],[0,0.25]];outlineConnect=0;html=1;whiteSpace=wrap;fontSize=16;fontStyle=0;container=1;pointerEvents=0;collapsible=0;recursiveResize=0;shape=mxgraph.aws4.group;grIcon=mxgraph.aws4.group_ec2_instance_contents;verticalAlign=top;align=left;spacingLeft=30;dashed=0;" parent="1" vertex="1">
          <mxGeometry x="177" y="277" width="117" height="68" as="geometry" />
        </mxCell>
        <mxCell id="CAWS1c23a_xCzH4P-0fV-3" value="&lt;b&gt;golang node&lt;/b&gt;" style="points=[[0,0],[0.25,0],[0.5,0],[0.75,0],[1,0],[1,0.25],[1,0.5],[1,0.75],[1,1],[0.75,1],[0.5,1],[0.25,1],[0,1],[0,0.75],[0,0.5],[0,0.25]];outlineConnect=0;html=1;whiteSpace=wrap;fontSize=16;fontStyle=0;container=1;pointerEvents=0;collapsible=0;recursiveResize=0;shape=mxgraph.aws4.group;grIcon=mxgraph.aws4.group_ec2_instance_contents;verticalAlign=top;align=left;spacingLeft=30;dashed=0;" parent="1" vertex="1">
          <mxGeometry x="177" y="386" width="117" height="68" as="geometry" />
        </mxCell>
        <mxCell id="CAWS1c23a_xCzH4P-0fV-8" value="Horizontal scale" style="swimlane;whiteSpace=wrap;html=1;fontSize=12;dashed=1;" parent="1" vertex="1">
          <mxGeometry x="133" y="115" width="194" height="381" as="geometry" />
        </mxCell>
      </root>
    </mxGraphModel>
  </diagram>
  <diagram id="nRngIsevE3d7S8CMo2yf" name="Page-11">
    <mxGraphModel dx="1626" dy="847" grid="0" gridSize="10" guides="1" tooltips="1" connect="1" arrows="1" fold="1" page="0" pageScale="1" pageWidth="850" pageHeight="1100" math="0" shadow="0">
      <root>
        <mxCell id="0" />
        <mxCell id="1" parent="0" />
      </root>
    </mxGraphModel>
  </diagram>
</mxfile>
